<svg width="16" height="17" viewBox="0 0 16 17" fill="none" xmlns="http://www.w3.org/2000/svg">
<g id="BookOpen">
<path id="Vector" d="M14 3.5H10C9.61189 3.5 9.2291 3.59036 8.88197 3.76393C8.53483 3.9375 8.23287 4.18951 8 4.5C7.76713 4.18951 7.46517 3.9375 7.11803 3.76393C6.7709 3.59036 6.38811 3.5 6 3.5H2C1.73478 3.5 1.48043 3.60536 1.29289 3.79289C1.10536 3.98043 1 4.23478 1 4.5V12.5C1 12.7652 1.10536 13.0196 1.29289 13.2071C1.48043 13.3946 1.73478 13.5 2 13.5H6C6.39782 13.5 6.77936 13.658 7.06066 13.9393C7.34196 14.2206 7.5 14.6022 7.5 15C7.5 15.1326 7.55268 15.2598 7.64645 15.3536C7.74021 15.4473 7.86739 15.5 8 15.5C8.13261 15.5 8.25979 15.4473 8.35355 15.3536C8.44732 15.2598 8.5 15.1326 8.5 15C8.5 14.6022 8.65804 14.2206 8.93934 13.9393C9.22064 13.658 9.60218 13.5 10 13.5H14C14.2652 13.5 14.5196 13.3946 14.7071 13.2071C14.8946 13.0196 15 12.7652 15 12.5V4.5C15 4.23478 14.8946 3.98043 14.7071 3.79289C14.5196 3.60536 14.2652 3.5 14 3.5ZM6 12.5H2V4.5H6C6.39782 4.5 6.77936 4.65804 7.06066 4.93934C7.34196 5.22064 7.5 5.60218 7.5 6V13C7.06766 12.6747 6.54106 12.4991 6 12.5ZM14 12.5H10C9.45893 12.4991 8.93234 12.6747 8.5 13V6C8.5 5.60218 8.65804 5.22064 8.93934 4.93934C9.22064 4.65804 9.60218 4.5 10 4.5H14V12.5Z" fill="#C9C9C9"/>
</g>
</svg>
