<svg width="20" height="20" viewBox="0 0 20 20" fill="none" xmlns="http://www.w3.org/2000/svg">
<g id="CaretDown">
<path id="Vector" d="M16.692 7.94217L10.442 14.1922C10.384 14.2503 10.3151 14.2964 10.2392 14.3278C10.1633 14.3593 10.082 14.3755 9.99986 14.3755C9.91772 14.3755 9.8364 14.3593 9.76052 14.3278C9.68465 14.2964 9.61572 14.2503 9.55767 14.1922L3.30767 7.94217C3.1904 7.82489 3.12451 7.66583 3.12451 7.49998C3.12451 7.33413 3.1904 7.17507 3.30767 7.05779C3.42495 6.94052 3.58401 6.87463 3.74986 6.87463C3.91571 6.87463 4.07477 6.94052 4.19205 7.05779L9.99986 12.8664L15.8077 7.05779C15.8657 6.99972 15.9347 6.95366 16.0105 6.92224C16.0864 6.89081 16.1677 6.87463 16.2499 6.87463C16.332 6.87463 16.4133 6.89081 16.4892 6.92224C16.565 6.95366 16.634 6.99972 16.692 7.05779C16.7501 7.11586 16.7962 7.1848 16.8276 7.26067C16.859 7.33654 16.8752 7.41786 16.8752 7.49998C16.8752 7.5821 16.859 7.66342 16.8276 7.73929C16.7962 7.81516 16.7501 7.8841 16.692 7.94217Z" fill="#C9C9C9"/>
</g>
</svg>
