<svg width="16" height="16" viewBox="0 0 16 16" fill="none" xmlns="http://www.w3.org/2000/svg">
<g id="CaretDown">
<path id="Vector" d="M2.64622 9.64622L7.64622 4.64622C7.69265 4.59973 7.7478 4.56285 7.8085 4.53769C7.86919 4.51252 7.93426 4.49957 7.99997 4.49957C8.06567 4.49957 8.13074 4.51252 8.19144 4.53769C8.25214 4.56285 8.30728 4.59973 8.35372 4.64622L13.3537 9.64622C13.4475 9.74004 13.5002 9.86728 13.5002 9.99997C13.5002 10.1326 13.4475 10.2599 13.3537 10.3537C13.2599 10.4475 13.1326 10.5002 13 10.5002C12.8673 10.5002 12.74 10.4475 12.6462 10.3537L7.99997 5.70684L3.35372 10.3537C3.30726 10.4002 3.25211 10.437 3.19141 10.4622C3.13072 10.4873 3.06566 10.5002 2.99997 10.5002C2.93427 10.5002 2.86921 10.4873 2.80852 10.4622C2.74782 10.437 2.69267 10.4002 2.64622 10.3537C2.59976 10.3073 2.56291 10.2521 2.53777 10.1914C2.51263 10.1307 2.49969 10.0657 2.49969 9.99997C2.49969 9.93427 2.51263 9.86921 2.53777 9.80852C2.56291 9.74782 2.59976 9.69267 2.64622 9.64622Z" fill="#C9C9C9"/>
</g>
</svg>
