<svg width="16" height="16" viewBox="0 0 16 16" fill="none" xmlns="http://www.w3.org/2000/svg">
<g id="Clipboard">
<path id="Vector" d="M12.5 2H10.2338C9.95281 1.68545 9.6086 1.43379 9.22367 1.26147C8.83873 1.08916 8.42174 1.00009 8 1.00009C7.57826 1.00009 7.16127 1.08916 6.77633 1.26147C6.39139 1.43379 6.04719 1.68545 5.76625 2H3.5C3.23478 2 2.98043 2.10536 2.79289 2.29289C2.60536 2.48043 2.5 2.73478 2.5 3V13.5C2.5 13.7652 2.60536 14.0196 2.79289 14.2071C2.98043 14.3946 3.23478 14.5 3.5 14.5H12.5C12.7652 14.5 13.0196 14.3946 13.2071 14.2071C13.3946 14.0196 13.5 13.7652 13.5 13.5V3C13.5 2.73478 13.3946 2.48043 13.2071 2.29289C13.0196 2.10536 12.7652 2 12.5 2ZM8 2C8.53043 2 9.03914 2.21071 9.41421 2.58579C9.78929 2.96086 10 3.46957 10 4H6C6 3.46957 6.21071 2.96086 6.58579 2.58579C6.96086 2.21071 7.46957 2 8 2ZM12.5 13.5H3.5V3H5.17188C5.05814 3.32114 5.00001 3.65932 5 4V4.5C5 4.63261 5.05268 4.75979 5.14645 4.85355C5.24021 4.94732 5.36739 5 5.5 5H10.5C10.6326 5 10.7598 4.94732 10.8536 4.85355C10.9473 4.75979 11 4.63261 11 4.5V4C11 3.65932 10.9419 3.32114 10.8281 3H12.5V13.5Z" fill="#C9C9C9"/>
</g>
</svg>
