<svg width="12" height="12" viewBox="0 0 12 12" fill="none" xmlns="http://www.w3.org/2000/svg">
<g id="Clipboard">
<path id="Vector" d="M9.375 1.49999H7.67531C7.46461 1.26408 7.20645 1.07533 6.91775 0.946099C6.62905 0.816865 6.31631 0.750061 6 0.750061C5.68369 0.750061 5.37095 0.816865 5.08225 0.946099C4.79355 1.07533 4.53539 1.26408 4.32469 1.49999H2.625C2.42609 1.49999 2.23532 1.57901 2.09467 1.71966C1.95402 1.86032 1.875 2.05108 1.875 2.24999V10.125C1.875 10.3239 1.95402 10.5147 2.09467 10.6553C2.23532 10.796 2.42609 10.875 2.625 10.875H9.375C9.57391 10.875 9.76468 10.796 9.90533 10.6553C10.046 10.5147 10.125 10.3239 10.125 10.125V2.24999C10.125 2.05108 10.046 1.86032 9.90533 1.71966C9.76468 1.57901 9.57391 1.49999 9.375 1.49999ZM6 1.49999C6.39782 1.49999 6.77936 1.65803 7.06066 1.93933C7.34196 2.22064 7.5 2.60217 7.5 2.99999H4.5C4.5 2.60217 4.65804 2.22064 4.93934 1.93933C5.22064 1.65803 5.60218 1.49999 6 1.49999ZM9.375 10.125H2.625V2.24999H3.87891C3.7936 2.49084 3.75001 2.74448 3.75 2.99999V3.37499C3.75 3.47445 3.78951 3.56983 3.85984 3.64016C3.93016 3.71048 4.02554 3.74999 4.125 3.74999H7.875C7.97446 3.74999 8.06984 3.71048 8.14017 3.64016C8.21049 3.56983 8.25 3.47445 8.25 3.37499V2.99999C8.24999 2.74448 8.2064 2.49084 8.12109 2.24999H9.375V10.125Z" fill="#6437F4"/>
</g>
</svg>
