<svg width="24" height="24" viewBox="0 0 24 24" fill="none" xmlns="http://www.w3.org/2000/svg">
<g id="Cube">
<path id="Vector" d="M20.97 6.20155L12.72 1.68749C12.4996 1.56569 12.2518 1.5018 12 1.5018C11.7482 1.5018 11.5004 1.56569 11.28 1.68749L3.03 6.20342C2.7944 6.33233 2.59772 6.52214 2.46052 6.75301C2.32331 6.98388 2.25061 7.24736 2.25 7.51592V16.4822C2.25061 16.7507 2.32331 17.0142 2.46052 17.2451C2.59772 17.476 2.7944 17.6658 3.03 17.7947L11.28 22.3106C11.5004 22.4324 11.7482 22.4963 12 22.4963C12.2518 22.4963 12.4996 22.4324 12.72 22.3106L20.97 17.7947C21.2056 17.6658 21.4023 17.476 21.5395 17.2451C21.6767 17.0142 21.7494 16.7507 21.75 16.4822V7.51686C21.7499 7.24782 21.6774 6.98376 21.5402 6.75234C21.403 6.52093 21.206 6.33069 20.97 6.20155ZM12 2.99999L19.5319 7.12499L12 11.25L4.46812 7.12499L12 2.99999ZM3.75 8.43749L11.25 12.5419V20.5847L3.75 16.4831V8.43749ZM12.75 20.5847V12.5456L20.25 8.43749V16.4794L12.75 20.5847Z" fill="#C9C9C9"/>
</g>
</svg>
