<svg width="16" height="16" viewBox="0 0 16 16" fill="none" xmlns="http://www.w3.org/2000/svg">
<g id="CurrencyEth">
<path id="Vector" d="M13.8932 7.69125L8.39321 0.69125C8.34642 0.631718 8.28673 0.583589 8.21863 0.550495C8.15053 0.5174 8.0758 0.500204 8.00008 0.500204C7.92437 0.500204 7.84964 0.5174 7.78154 0.550495C7.71344 0.583589 7.65374 0.631718 7.60696 0.69125L2.10696 7.69125C2.03782 7.77932 2.00024 7.88804 2.00024 8C2.00024 8.11196 2.03782 8.22068 2.10696 8.30875L7.60696 15.3087C7.65374 15.3683 7.71344 15.4164 7.78154 15.4495C7.84964 15.4826 7.92437 15.4998 8.00008 15.4998C8.0758 15.4998 8.15053 15.4826 8.21863 15.4495C8.28673 15.4164 8.34642 15.3683 8.39321 15.3087L13.8932 8.30875C13.9623 8.22068 13.9999 8.11196 13.9999 8C13.9999 7.88804 13.9623 7.77932 13.8932 7.69125ZM8.50008 2.44562L12.7138 7.80812L8.50008 9.72375V2.44562ZM7.50008 9.72375L3.28633 7.80812L7.50008 2.44562V9.72375ZM7.50008 10.8219V13.5544L4.16071 9.30437L7.50008 10.8219ZM8.50008 10.8219L11.8395 9.30375L8.50008 13.5537V10.8219Z" fill="#C9C9C9"/>
</g>
</svg>
