<svg width="16" height="17" viewBox="0 0 16 17" fill="none" xmlns="http://www.w3.org/2000/svg">
<g id="Detective" clip-path="url(#clip0_4_1925)">
<path id="Vector" d="M15.5 7.5H13.755L10.7863 3.41187C10.6963 3.28836 10.5792 3.1871 10.444 3.11588C10.3088 3.04465 10.1591 3.00536 10.0064 3.00101C9.85361 2.99667 9.7019 3.02739 9.56288 3.09081C9.42385 3.15423 9.30122 3.24867 9.20438 3.36687L8.40125 4.29812L8.38875 4.3125C8.34221 4.37096 8.28309 4.41817 8.21579 4.45062C8.14848 4.48307 8.07472 4.49993 8 4.49993C7.92528 4.49993 7.85152 4.48307 7.78421 4.45062C7.71691 4.41817 7.65779 4.37096 7.61125 4.3125L7.59875 4.29812L6.79563 3.36687C6.69879 3.24867 6.57614 3.15423 6.43712 3.09081C6.2981 3.02739 6.14639 2.99667 5.99364 3.00101C5.84089 3.00536 5.69118 3.04465 5.55598 3.11588C5.42079 3.1871 5.30371 3.28836 5.21375 3.41187L2.245 7.5H0.5C0.367392 7.5 0.240215 7.55268 0.146447 7.64645C0.0526784 7.74021 0 7.86739 0 8C0 8.13261 0.0526784 8.25978 0.146447 8.35355C0.240215 8.44732 0.367392 8.5 0.5 8.5H15.5C15.6326 8.5 15.7598 8.44732 15.8536 8.35355C15.9473 8.25978 16 8.13261 16 8C16 7.86739 15.9473 7.74021 15.8536 7.64645C15.7598 7.55268 15.6326 7.5 15.5 7.5ZM6.02125 4L6.03312 4.01437L6.83625 4.945C6.9769 5.11795 7.15434 5.25738 7.35564 5.35314C7.55695 5.4489 7.77707 5.49859 8 5.49859C8.22293 5.49859 8.44305 5.4489 8.64436 5.35314C8.84566 5.25738 9.0231 5.11795 9.16375 4.945L9.96688 4.01437C9.97062 4.00937 9.97312 4.005 9.9775 4L12.5188 7.5H3.48062L6.02125 4ZM11.25 9.5C10.6966 9.50011 10.1627 9.70414 9.75028 10.0731C9.33785 10.4421 9.07586 10.9501 9.01437 11.5H6.98562C6.924 10.9506 6.66222 10.443 6.25026 10.0743C5.8383 9.70556 5.30499 9.5014 4.7521 9.5008C4.19921 9.5002 3.66546 9.70319 3.25269 10.071C2.83993 10.4389 2.57705 10.9458 2.51422 11.4951C2.45139 12.0444 2.59302 12.5976 2.91207 13.0492C3.23112 13.5007 3.70525 13.819 4.244 13.9432C4.78274 14.0675 5.34837 13.989 5.83296 13.7228C6.31754 13.4566 6.68715 13.0213 6.87125 12.5H9.12875C9.26625 12.8889 9.50802 13.2325 9.82763 13.4933C10.1472 13.7541 10.5324 13.922 10.941 13.9787C11.3496 14.0353 11.7659 13.9786 12.1444 13.8146C12.5229 13.6507 12.8491 13.3858 13.0872 13.049C13.3254 12.7122 13.4663 12.3164 13.4947 11.9049C13.5231 11.4934 13.4378 11.082 13.2482 10.7156C13.0586 10.3493 12.7719 10.0422 12.4195 9.82776C12.0671 9.61337 11.6625 9.49999 11.25 9.5ZM4.75 13C4.50277 13 4.2611 12.9267 4.05554 12.7893C3.84998 12.652 3.68976 12.4568 3.59515 12.2284C3.50054 11.9999 3.47579 11.7486 3.52402 11.5061C3.57225 11.2637 3.6913 11.0409 3.86612 10.8661C4.04093 10.6913 4.26366 10.5722 4.50614 10.524C4.74861 10.4758 4.99995 10.5005 5.22835 10.5952C5.45676 10.6898 5.65199 10.85 5.78934 11.0555C5.92669 11.2611 6 11.5028 6 11.75C6 11.9142 5.96767 12.0767 5.90485 12.2284C5.84203 12.38 5.74996 12.5178 5.63388 12.6339C5.51781 12.75 5.38001 12.842 5.22835 12.9048C5.0767 12.9677 4.91415 13 4.75 13ZM11.25 13C11.0028 13 10.7611 12.9267 10.5555 12.7893C10.35 12.652 10.1898 12.4568 10.0952 12.2284C10.0005 11.9999 9.97579 11.7486 10.024 11.5061C10.0722 11.2637 10.1913 11.0409 10.3661 10.8661C10.5409 10.6913 10.7637 10.5722 11.0061 10.524C11.2486 10.4758 11.4999 10.5005 11.7284 10.5952C11.9568 10.6898 12.152 10.85 12.2893 11.0555C12.4267 11.2611 12.5 11.5028 12.5 11.75C12.5 12.0815 12.3683 12.3995 12.1339 12.6339C11.8995 12.8683 11.5815 13 11.25 13Z" fill="#C9C9C9"/>
</g>
<defs>
<clipPath id="clip0_4_1925">
<rect width="16" height="16" fill="white" transform="translate(0 0.5)"/>
</clipPath>
</defs>
</svg>
