<svg width="24" height="24" viewBox="0 0 24 24" fill="none" xmlns="http://www.w3.org/2000/svg">
<g id="Fingerprint">
<path id="Vector" d="M6.74986 12C6.75523 13.9673 6.30063 15.9087 5.42236 17.6691C5.38044 17.7603 5.32061 17.8423 5.24643 17.91C5.17224 17.9777 5.08522 18.0298 4.99051 18.0632C4.8958 18.0967 4.79534 18.1107 4.69509 18.1046C4.59484 18.0985 4.49684 18.0723 4.40691 18.0276C4.31698 17.9829 4.23694 17.9205 4.17155 17.8443C4.10616 17.7681 4.05674 17.6795 4.02624 17.5838C3.99574 17.4881 3.98477 17.3872 3.99398 17.2872C4.00319 17.1872 4.03239 17.0901 4.07986 17.0016C4.85423 15.4483 5.25489 13.7356 5.24986 12C5.2481 10.9879 5.47481 9.98848 5.91309 9.07622C6.35136 8.16395 6.98991 7.36237 7.78111 6.73125C7.93639 6.60693 8.13469 6.54938 8.33239 6.57127C8.5301 6.59316 8.71101 6.69269 8.83533 6.84797C8.95965 7.00324 9.01719 7.20155 8.9953 7.39925C8.97342 7.59696 8.87389 7.77787 8.71861 7.90219C8.10309 8.39291 7.60634 9.01631 7.26544 9.72587C6.92455 10.4354 6.7483 11.2128 6.74986 12ZM11.9999 11.25C11.8009 11.25 11.6102 11.329 11.4695 11.4697C11.3289 11.6103 11.2499 11.8011 11.2499 12C11.2497 14.922 10.5078 17.7961 9.09361 20.3531C8.99714 20.5272 8.97376 20.7324 9.02861 20.9237C9.08346 21.115 9.21206 21.2767 9.38611 21.3731C9.56016 21.4696 9.7654 21.493 9.95669 21.4381C10.148 21.3833 10.3096 21.2547 10.4061 21.0806C11.9432 18.3009 12.7496 15.1764 12.7499 12C12.7499 11.8011 12.6708 11.6103 12.5302 11.4697C12.3895 11.329 12.1988 11.25 11.9999 11.25ZM11.9999 8.25C11.0053 8.25 10.0515 8.64509 9.34821 9.34835C8.64495 10.0516 8.24986 11.0054 8.24986 12C8.24986 12.1989 8.32888 12.3897 8.46953 12.5303C8.61018 12.671 8.80095 12.75 8.99986 12.75C9.19877 12.75 9.38954 12.671 9.53019 12.5303C9.67084 12.3897 9.74986 12.1989 9.74986 12C9.74986 11.4033 9.98691 10.831 10.4089 10.409C10.8308 9.98705 11.4031 9.75 11.9999 9.75C12.5966 9.75 13.1689 9.98705 13.5908 10.409C14.0128 10.831 14.2499 11.4033 14.2499 12C14.2576 14.9821 13.6008 17.9285 12.327 20.625C12.285 20.7143 12.261 20.811 12.2563 20.9097C12.2516 21.0083 12.2664 21.1068 12.2999 21.1997C12.3333 21.2926 12.3847 21.378 12.4511 21.451C12.5176 21.524 12.5977 21.5833 12.687 21.6253C12.7764 21.6674 12.8731 21.6914 12.9717 21.6961C13.0703 21.7007 13.1689 21.6859 13.2618 21.6525C13.3546 21.6191 13.44 21.5677 13.5131 21.5012C13.5861 21.4348 13.6453 21.3546 13.6874 21.2653C15.0545 18.3684 15.7591 15.2033 15.7499 12C15.7499 11.0054 15.3548 10.0516 14.6515 9.34835C13.9482 8.64509 12.9944 8.25 11.9999 8.25ZM11.9999 2.25C9.41484 2.25273 6.93647 3.28084 5.10858 5.10872C3.28069 6.93661 2.25259 9.41498 2.24986 12C2.25125 12.9366 2.09272 13.8665 1.78111 14.7497C1.71485 14.9373 1.72582 15.1435 1.81162 15.323C1.89742 15.5025 2.05101 15.6406 2.23861 15.7069C2.42621 15.7731 2.63245 15.7622 2.81195 15.6764C2.99146 15.5906 3.12953 15.437 3.1958 15.2494C3.56374 14.2056 3.75111 13.1067 3.74986 12C3.74986 9.81196 4.61905 7.71354 6.16623 6.16637C7.7134 4.61919 9.81182 3.75 11.9999 3.75C14.1879 3.75 16.2863 4.61919 17.8335 6.16637C19.3807 7.71354 20.2499 9.81196 20.2499 12C20.2502 13.7136 20.0841 15.4232 19.7539 17.1047C19.7348 17.2013 19.7349 17.3008 19.7543 17.3974C19.7736 17.494 19.8118 17.5858 19.8667 17.6677C19.9215 17.7495 19.992 17.8197 20.0739 17.8743C20.1559 17.929 20.2479 17.9669 20.3445 17.9859C20.3924 17.9952 20.4411 17.9999 20.4899 18C20.6634 17.9998 20.8315 17.9394 20.9656 17.8292C21.0996 17.7189 21.1912 17.5656 21.2249 17.3953C21.5741 15.6181 21.7499 13.8112 21.7499 12C21.7469 9.41505 20.7187 6.93683 18.8909 5.109C17.063 3.28116 14.5848 2.25298 11.9999 2.25ZM8.84986 14.2659C8.65534 14.2272 8.45342 14.2672 8.28827 14.377C8.12312 14.4868 8.00818 14.6575 7.96861 14.8519C7.66429 16.3497 7.11943 17.7883 6.35517 19.1119C6.25572 19.2842 6.22878 19.4889 6.2803 19.6811C6.33181 19.8733 6.45755 20.0371 6.62986 20.1366C6.80217 20.236 7.00693 20.263 7.19909 20.2114C7.39126 20.1599 7.55509 20.0342 7.65455 19.8619C8.49913 18.3982 9.10069 16.8072 9.4358 15.1509C9.4555 15.0543 9.45598 14.9548 9.43719 14.8581C9.4184 14.7613 9.38072 14.6692 9.3263 14.587C9.27188 14.5048 9.20179 14.4341 9.12003 14.379C9.03828 14.3239 8.94648 14.2855 8.84986 14.2659ZM11.9999 5.25C11.7178 5.25006 11.436 5.26759 11.1561 5.3025C10.9624 5.33157 10.7878 5.43525 10.6696 5.59137C10.5513 5.74749 10.4989 5.94366 10.5233 6.13797C10.5478 6.33227 10.6473 6.50929 10.8006 6.63119C10.9539 6.75309 11.1488 6.8102 11.3436 6.79031C12.0825 6.69844 12.8324 6.76454 13.5438 6.98426C14.2552 7.20397 14.9118 7.57227 15.4702 8.06479C16.0286 8.55731 16.476 9.16282 16.7828 9.84122C17.0896 10.5196 17.2488 11.2554 17.2499 12C17.2496 12.9715 17.1895 13.9421 17.0699 14.9062C17.0567 15.0043 17.0631 15.104 17.0886 15.1996C17.1141 15.2951 17.1583 15.3847 17.2186 15.4631C17.2789 15.5416 17.3542 15.6073 17.44 15.6565C17.5258 15.7058 17.6205 15.7375 17.7186 15.75C17.7497 15.7537 17.781 15.7556 17.8124 15.7556C17.9948 15.7552 18.1708 15.6884 18.3074 15.5676C18.4441 15.4468 18.5321 15.2803 18.5549 15.0994C18.6813 14.073 18.744 13.0398 18.7424 12.0056C18.7419 10.2163 18.0318 8.5003 16.7678 7.23386C15.5038 5.96742 13.7891 5.25397 11.9999 5.25ZM17.4308 17.2734C17.3354 17.2488 17.236 17.2431 17.1384 17.2569C17.0409 17.2706 16.9469 17.3035 16.862 17.3535C16.7772 17.4036 16.703 17.4699 16.6437 17.5486C16.5845 17.6274 16.5413 17.7171 16.5167 17.8125C16.3799 18.3459 16.2214 18.8813 16.048 19.4062C15.9845 19.5944 15.9982 19.7999 16.0861 19.978C16.174 20.156 16.3288 20.2919 16.5167 20.3559C16.5937 20.3821 16.6745 20.3954 16.7558 20.3953C16.9129 20.3952 17.0661 20.3457 17.1936 20.2539C17.3211 20.162 17.4165 20.0324 17.4664 19.8834C17.6539 19.3284 17.8217 18.7584 17.968 18.1912C17.9931 18.0958 17.9992 17.9964 17.9858 17.8986C17.9725 17.8009 17.94 17.7067 17.8901 17.6215C17.8403 17.5364 17.7742 17.4618 17.6955 17.4023C17.6169 17.3427 17.5272 17.2992 17.4317 17.2744L17.4308 17.2734Z" fill="white"/>
</g>
</svg>
