<?xml version="1.0" encoding="iso-8859-1"?>
<!-- Generator: Adobe Illustrator 19.0.1, SVG Export Plug-In . SVG Version: 6.00 Build 0)  -->
<svg version="1.1" id="Flowers" xmlns="http://www.w3.org/2000/svg" xmlns:xlink="http://www.w3.org/1999/xlink" x="0px" y="0px"
	 viewBox="0 0 128 128" style="enable-background:new 0 0 128 128;" xml:space="preserve">
<g id="row3">
	<g id="flower:4_2_" style="display:none;">
		<path id="Shape_10_" style="display:inline;fill:#D8BDF9;" d="M49.991,97.579c0,0,7.143-8.998,13.981-22.537
			c6.671,13.362,13.648,22.323,13.864,22.601c-0.036-0.347-1.381-11.624-6.047-25.816c14.387,4.805,25.791,6.18,25.791,6.18
			s-8.995-7.135-22.531-13.979c13.359-6.665,22.321-13.642,22.592-13.861c-0.347,0.036-11.624,1.381-25.816,6.047
			c4.811-14.385,6.183-25.798,6.183-25.798s-7.143,8.998-13.981,22.537c-6.665-13.36-13.642-22.321-13.861-22.592
			c0.036,0.347,1.381,11.624,6.044,25.807c-14.387-4.805-25.785-6.178-25.785-6.178s8.995,7.135,22.531,13.979
			c-13.362,6.671-22.323,13.648-22.595,13.867c0.347-0.036,11.624-1.381,25.807-6.044C51.366,86.175,49.991,97.579,49.991,97.579z"
			/>
		<path id="Shape_9_" style="display:inline;fill:#986FC6;" d="M103.094,63.997c0,0-8.932-5.822-21.912-7.11
			c8.265-10.093,10.466-20.535,10.466-20.535s-10.442,2.201-20.535,10.466c-1.287-12.98-7.11-21.912-7.11-21.912
			s-5.828,8.932-7.116,21.912c-10.093-8.265-20.529-10.466-20.529-10.466S38.554,46.8,46.824,56.887
			c-12.98,1.287-21.918,7.11-21.918,7.11s8.938,5.828,21.918,7.116C38.554,81.2,36.358,91.642,36.358,91.642
			S46.8,89.446,56.887,81.176c1.287,12.98,7.116,21.918,7.116,21.918s5.822-8.938,7.11-21.918
			C81.2,89.446,91.648,91.642,91.648,91.642s-2.201-10.436-10.466-20.529C94.162,69.825,103.094,63.997,103.094,63.997z
			 M71.889,67.275c-0.024,1.522-0.066,3.02-0.126,4.487c-1.468,0.06-2.965,0.102-4.487,0.126c-1.101,1.059-2.189,2.093-3.272,3.086
			c-1.083-0.992-2.177-2.027-3.272-3.086c-1.522-0.024-3.025-0.066-4.493-0.126c-0.06-1.468-0.102-2.971-0.126-4.493
			c-1.059-1.095-2.093-2.189-3.086-3.272c0.992-1.083,2.027-2.171,3.086-3.272c0.024-1.522,0.066-3.019,0.126-4.487
			c1.468-0.06,2.965-0.102,4.487-0.126c1.101-1.059,2.195-2.093,3.278-3.092c1.083,0.998,2.177,2.033,3.278,3.092
			c1.522,0.024,3.013,0.066,4.481,0.126c0.06,1.468,0.102,2.959,0.126,4.481c1.059,1.101,2.093,2.195,3.092,3.278
			C73.982,65.08,72.947,66.174,71.889,67.275z"/>
		<path id="Shape_8_" style="display:inline;fill:#FFFFFF;" d="M71.382,64.004c-0.667,0.725-1.367,1.459-2.076,2.201
			c-0.017,1.025-0.042,2.034-0.083,3.018c-0.992,0.042-1.992,0.075-3.018,0.092c-0.742,0.709-1.476,1.4-2.201,2.067
			c-0.734-0.667-1.467-1.359-2.201-2.067c-1.025-0.017-2.034-0.05-3.026-0.092c-0.042-0.984-0.067-1.992-0.083-3.018
			c-0.709-0.742-1.409-1.476-2.076-2.201c0.667-0.734,1.367-1.459,2.076-2.201c0.017-1.025,0.042-2.034,0.083-3.018
			c0.992-0.042,2.001-0.067,3.018-0.083c0.742-0.717,1.475-1.409,2.209-2.084c0.725,0.675,1.459,1.367,2.201,2.084
			c1.025,0.017,2.026,0.042,3.018,0.083c0.042,0.984,0.067,1.992,0.083,3.009C70.015,62.537,70.715,63.271,71.382,64.004z"/>
	</g>
	<g id="flower:3_2_" style="display:none;">
		<path id="Shape_6_" style="display:inline;fill:#79951E;" d="M100.69,64c0-5.759-0.912-10.429-8.895-10.429
			c-1.201,0-2.635,0.233-4.18,0.645c1.39-0.812,2.557-1.646,3.413-2.502c5.637-5.648,2.991-9.584-1.09-13.653
			c-4.069-4.08-8.005-6.727-13.653-1.09c-0.856,0.856-1.701,2.035-2.502,3.424c0.4-1.557,0.634-2.98,0.634-4.192
			c0-7.983-4.659-8.895-10.418-8.895s-10.429,0.912-10.429,8.895c0,1.201,0.234,2.613,0.634,4.158
			c-0.812-1.379-1.645-2.546-2.49-3.391c-5.648-5.637-9.584-2.991-13.653,1.09c-4.08,4.069-6.727,8.005-1.09,13.653
			c0.856,0.856,2.035,1.701,3.424,2.502c-1.557-0.4-2.98-0.634-4.192-0.634c-7.983,0-8.895,4.659-8.895,10.418
			s0.912,10.429,8.895,10.429c1.201,0,2.613-0.234,4.158-0.634c-1.379,0.812-2.546,1.645-3.391,2.49
			c-5.637,5.648-2.991,9.584,1.09,13.653c4.069,4.08,8.005,6.727,13.653,1.09c0.856-0.856,1.701-2.035,2.502-3.424
			c-0.4,1.557-0.634,2.98-0.634,4.192c0,7.983,4.659,8.895,10.418,8.895s10.429-0.912,10.429-8.895c0-1.201-0.234-2.613-0.634-4.158
			c0.812,1.379,1.645,2.546,2.49,3.391c5.648,5.637,9.584,2.991,13.653-1.09c4.08-4.069,6.727-8.005,1.09-13.653
			c-0.845-0.845-2.024-1.69-3.402-2.502c1.545,0.4,2.969,0.634,4.169,0.634C99.779,74.418,100.69,69.759,100.69,64z M80.344,51.125
			c0.578,0.578-0.111,2.201-1.534,3.636c-1.434,1.423-3.058,2.112-3.636,1.534c-0.578-0.578,0.111-2.201,1.534-3.636
			C78.142,51.236,79.766,50.547,80.344,51.125z M73.562,49.513c1.434-1.423,3.058-2.112,3.636-1.534
			c0.578,0.578-0.111,2.201-1.534,3.636c-1.434,1.434-3.058,2.124-3.636,1.534C71.449,52.57,72.139,50.947,73.562,49.513z
			 M66.224,43.431c0.823,0,1.479,1.634,1.479,3.658s-0.656,3.658-1.479,3.658c-0.823,0-1.479-1.634-1.479-3.658
			S65.401,43.431,66.224,43.431z M61.776,43.431c0.823,0,1.479,1.634,1.479,3.658s-0.656,3.658-1.479,3.658
			s-1.479-1.634-1.479-3.658S60.954,43.431,61.776,43.431z M50.803,47.979c0.578-0.578,2.201,0.111,3.636,1.534
			c1.423,1.434,2.112,3.058,1.534,3.636c-0.578,0.589-2.201-0.1-3.636-1.534C50.914,50.18,50.224,48.557,50.803,47.979z
			 M47.656,51.125c0.578-0.578,2.201,0.111,3.636,1.534c1.423,1.434,2.112,3.058,1.534,3.636c-0.578,0.578-2.201-0.111-3.636-1.534
			C47.767,53.326,47.078,51.703,47.656,51.125z M46.767,60.62c2.024,0,3.658,0.667,3.658,1.479c0,0.823-1.634,1.49-3.658,1.49
			s-3.658-0.667-3.658-1.49C43.109,61.287,44.743,60.62,46.767,60.62z M43.109,66.546c0-0.812,1.634-1.479,3.658-1.479
			s3.658,0.667,3.658,1.479c0,0.823-1.634,1.49-3.658,1.49S43.109,67.369,43.109,66.546z M47.656,77.531
			c-0.578-0.589,0.111-2.213,1.534-3.647c1.434-1.423,3.058-2.113,3.636-1.534c0.578,0.578-0.111,2.201-1.534,3.636
			C49.858,77.42,48.234,78.109,47.656,77.531z M54.438,79.132c-1.434,1.423-3.058,2.113-3.636,1.534
			c-0.578-0.578,0.111-2.201,1.534-3.636c1.434-1.423,3.058-2.112,3.636-1.534C56.551,76.074,55.861,77.698,54.438,79.132z
			 M61.776,85.214c-0.823,0-1.479-1.634-1.479-3.658s0.656-3.658,1.479-3.658s1.479,1.634,1.479,3.658S62.599,85.214,61.776,85.214z
			 M66.224,85.214c-0.823,0-1.479-1.634-1.479-3.658s0.656-3.658,1.479-3.658c0.823,0,1.479,1.634,1.479,3.658
			S67.046,85.214,66.224,85.214z M77.197,80.666c-0.578,0.578-2.201-0.111-3.636-1.534c-1.423-1.434-2.112-3.058-1.534-3.636
			c0.578-0.578,2.201,0.111,3.636,1.534C77.086,78.465,77.776,80.088,77.197,80.666z M80.344,77.531
			c-0.578,0.578-2.201-0.111-3.636-1.545c-1.423-1.434-2.112-3.058-1.534-3.636c0.578-0.578,2.201,0.111,3.636,1.534
			C80.233,75.318,80.922,76.942,80.344,77.531z M81.233,68.025c-2.024,0-3.658-0.656-3.658-1.479c0-0.812,1.634-1.479,3.658-1.479
			s3.658,0.667,3.658,1.479C84.891,67.369,83.257,68.025,81.233,68.025z M81.233,63.577c-2.024,0-3.658-0.656-3.658-1.479
			c0-0.812,1.634-1.479,3.658-1.479s3.658,0.667,3.658,1.479C84.891,62.921,83.257,63.577,81.233,63.577z"/>
		<circle id="Shape_7_" style="display:inline;fill:#FEEE16;" cx="64" cy="64" r="11.674"/>
	</g>
	<g id="flower:2_2_" style="display:none;">
		<path id="Shape_5_" style="display:inline;fill:#F49500;" d="M103.171,72.867c0,0-2.089,0.082-3.696,1.548
			c-1.817,1.659-7.476,5.924-7.847,6.523c0.045,2.187,0.075,5.892-0.146,7.842c-0.243,2.152,0.665,3.867,0.665,3.867
			s-1.801-1.064-3.946-0.697c-2.515,0.429-6.529,0.33-8.464,0.251c-0.164-0.006-0.314-0.013-0.445-0.021
			c-0.067,0.115-0.137,0.238-0.212,0.369c-1.067,1.866-3.038,5.23-4.271,6.84c-1.317,1.721-1.421,3.659-1.421,3.659
			s-0.997-1.839-3.023-2.629c-1.972-0.771-4.644-2.381-6.421-3.516c-1.832,1.216-4.385,2.858-5.918,3.615
			c-1.942,0.962-2.893,2.652-2.893,2.652s-0.082-2.089-1.548-3.696c-1.609-1.761-3.54-4.871-4.583-6.634
			c-2.198,0.208-5.742,0.499-7.648,0.426c-2.165-0.08-3.807,0.954-3.807,0.954s0.925-1.876,0.399-3.988
			c-0.605-2.428-0.815-6.331-0.883-8.307c-1.989-0.879-5.437-2.446-7.135-3.483c-1.848-1.131-3.785-1.032-3.785-1.032
			s1.724-1.185,2.299-3.283c0.806-2.942,3.196-7.507,3.753-8.547c-0.999-1.466-3.678-5.46-4.713-7.554
			c-0.962-1.942-2.652-2.893-2.652-2.893s2.088-0.08,3.695-1.546c2.38-2.174,7.22-4.936,7.875-5.306
			c-0.045-1.631-0.153-6.669,0.117-9.059c0.243-2.155-0.667-3.868-0.667-3.868s1.802,1.061,3.946,0.697
			c2.731-0.464,7.219-0.313,8.909-0.232c1.002-1.757,3.166-5.486,4.486-7.209c1.317-1.721,1.419-3.659,1.419-3.659
			s0.997,1.839,3.023,2.629c1.975,0.771,4.646,2.382,6.424,3.517c1.832-1.216,4.385-2.858,5.918-3.615
			c1.941-0.959,2.891-2.652,2.891-2.652s0.082,2.089,1.548,3.696c1.609,1.761,3.542,4.872,4.587,6.635
			c2.198-0.208,5.74-0.497,7.644-0.427c2.111,0.082,3.723-0.902,3.804-0.95c-0.052,0.111-0.904,1.936-0.396,3.984
			c0.605,2.431,0.814,6.333,0.883,8.307c-0.137-0.062,0.006,0.153,0,0c1.989,0.877,5.437,2.446,7.134,3.486
			c1.851,1.131,3.788,1.03,3.788,1.03s-1.724,1.185-2.299,3.283c-0.666,2.428-2.409,5.96-3.31,7.706
			c0.045,0.541,3.388,6.607,4.271,8.396C101.478,71.915,103.171,72.867,103.171,72.867z"/>
		<path id="Shape_4_" style="display:inline;fill:#FFD000;" d="M102.28,63.686c0,0-1.921,0.531-3.091,2.242
			c-1.324,1.936-5.645,7.127-5.859,7.764c0.518,2.02,1.355,5.451,1.575,7.308c0.244,2.05,1.46,3.444,1.46,3.444
			s-1.903-0.594-3.813,0.214c-2.24,0.946-5.986,1.73-7.799,2.078c-0.153,0.03-0.294,0.056-0.417,0.078
			c-0.037,0.121-0.076,0.251-0.117,0.389c-0.583,1.964-1.679,5.515-2.471,7.278c-0.847,1.884-0.521,3.705-0.521,3.705
			s-1.326-1.488-3.379-1.78c-1.998-0.285-4.828-1.197-6.725-1.862c-1.434,1.527-3.446,3.608-4.703,4.645
			c-1.592,1.316-2.106,3.091-2.106,3.091s-0.531-1.921-2.242-3.091c-1.877-1.283-4.347-3.748-5.699-5.157
			c-1.994,0.672-5.219,1.715-7.004,2.063c-2.026,0.397-3.325,1.715-3.325,1.715s0.449-1.942-0.499-3.787
			c-1.091-2.121-2.137-5.697-2.631-7.516c-2.037-0.382-5.578-1.084-7.38-1.676c-1.962-0.646-3.737-0.132-3.737-0.132
			s1.342-1.476,1.417-3.547c0.106-2.906,1.329-7.663,1.618-8.749c-1.247-1.143-4.604-4.265-6.021-5.982
			c-1.316-1.592-3.091-2.106-3.091-2.106s1.921-0.529,3.091-2.24c1.735-2.536,5.623-6.155,6.151-6.641
			c-0.397-1.504-1.596-6.155-1.867-8.432c-0.244-2.052-1.463-3.444-1.463-3.444s1.903,0.592,3.813-0.214
			c2.433-1.026,6.63-1.864,8.216-2.158c0.547-1.849,1.741-5.781,2.59-7.667c0.847-1.884,0.518-3.705,0.518-3.705
			s1.326,1.488,3.379,1.78c2,0.285,4.831,1.197,6.727,1.862c1.434-1.527,3.446-3.608,4.703-4.645
			c1.592-1.313,2.104-3.091,2.104-3.091s0.531,1.921,2.242,3.091c1.877,1.283,4.349,3.748,5.703,5.157
			c1.994-0.672,5.217-1.713,7-2.063c1.977-0.385,3.258-1.648,3.323-1.711c-0.024,0.115-0.417,1.994,0.501,3.783
			c1.091,2.124,2.137,5.699,2.631,7.516c-0.14-0.028,0.039,0.14,0,0c2.037,0.38,5.578,1.084,7.38,1.679
			c1.964,0.646,3.74,0.13,3.74,0.13s-1.342,1.476-1.417,3.547c-0.089,2.398-0.935,6.055-1.391,7.872
			c0.16,0.493,4.584,5.392,5.794,6.859C100.502,63.172,102.28,63.686,102.28,63.686z"/>
		<path id="Shape_3_" style="display:inline;fill:#231209;" d="M84.719,64c0,0.836-0.045,1.654-0.154,2.462
			c-0.055,0.509-0.127,1.008-0.227,1.499c-0.109,0.581-0.245,1.154-0.409,1.717c-0.273,0.972-0.618,1.917-1.036,2.826
			c-0.227,0.518-0.472,1.018-0.745,1.499c-0.191,0.345-0.382,0.681-0.6,1.008c-0.481,0.781-1.027,1.526-1.617,2.235
			c-0.581,0.7-1.208,1.363-1.881,1.981c-0.672,0.627-1.381,1.199-2.135,1.717c-0.609,0.445-1.254,0.845-1.917,1.208
			c-0.154,0.091-0.309,0.173-0.472,0.254c-0.863,0.445-1.763,0.836-2.689,1.163c-0.936,0.327-1.89,0.581-2.88,0.772
			c-0.055,0.018-0.118,0.027-0.173,0.036c-1.136,0.209-2.317,0.327-3.516,0.336c-0.091,0.009-0.182,0.009-0.273,0.009
			c-0.091,0-0.182,0-0.273-0.009c-1.199-0.009-2.371-0.127-3.507-0.336c-0.064-0.009-0.118-0.018-0.173-0.036
			c-0.99-0.191-1.953-0.445-2.88-0.772c-0.927-0.327-1.826-0.718-2.689-1.163c-0.164-0.082-0.318-0.164-0.472-0.254
			c-0.663-0.363-1.308-0.763-1.917-1.208c-0.754-0.518-1.463-1.09-2.135-1.717c-0.672-0.618-1.299-1.281-1.881-1.981
			c-0.591-0.709-1.136-1.454-1.617-2.235c-0.218-0.327-0.409-0.663-0.6-1.008c-0.273-0.481-0.518-0.981-0.745-1.499
			c-0.418-0.909-0.763-1.853-1.036-2.826c-0.164-0.563-0.3-1.136-0.409-1.717c-0.1-0.491-0.173-0.99-0.227-1.499
			c-0.109-0.809-0.154-1.626-0.154-2.462c0-0.091,0-0.182,0.009-0.263c0-0.345,0.009-0.681,0.036-1.018
			c0.045-0.854,0.145-1.681,0.3-2.498c0.191-1.045,0.463-2.071,0.809-3.053c0.318-0.927,0.709-1.826,1.163-2.689
			c0.427-0.836,0.918-1.635,1.463-2.398c0.518-0.754,1.09-1.463,1.717-2.135c0.609-0.663,1.272-1.29,1.971-1.881
			c0.709-0.581,1.454-1.127,2.235-1.617c0.799-0.509,1.635-0.954,2.507-1.345c0.909-0.409,1.853-0.763,2.826-1.027
			c1.036-0.309,2.117-0.527,3.216-0.645c0.391-0.055,0.79-0.091,1.19-0.109c0.418-0.036,0.845-0.045,1.272-0.045
			c0.436,0,0.863,0.009,1.281,0.045c0.409,0.018,0.799,0.055,1.19,0.109c1.108,0.118,2.18,0.336,3.216,0.636
			c0.972,0.282,1.917,0.627,2.826,1.036c0.872,0.391,1.708,0.836,2.508,1.345c0.781,0.491,1.526,1.036,2.235,1.617
			c0.7,0.591,1.363,1.217,1.971,1.881c0.627,0.672,1.199,1.381,1.717,2.135c0.545,0.763,1.036,1.563,1.463,2.398
			c0.454,0.863,0.845,1.763,1.163,2.689c0.345,0.981,0.618,2.008,0.809,3.053c0.154,0.818,0.254,1.644,0.3,2.498
			c0.027,0.336,0.036,0.672,0.036,1.018C84.719,63.819,84.719,63.909,84.719,64z"/>
	</g>
	<path id="flower:1_2_" style="fill:#4A2985;" d="M86.75,65.78c6.4-0.84,10.52-8.2,11.25-13.66c-5.74-5.76-13.23-5.39-17.63-2.53
		c3.42-3.98,4.79-11.35-0.16-17.79c-5.52-0.01-13.37,3.08-15.06,9.31C64.19,36.22,60,30.97,52.62,30
		c-3.79,3.78-7.06,11.15-4.33,16.7c-4.14-2.7-10.74-3.4-16.58,1.08c0,5.26,2.81,12.65,8.5,14.77c-4.62,1.28-9.3,5.38-10.21,12.3
		c3.67,3.67,10.74,6.87,16.24,4.54h0.01v0.01c-3.05,5.13-0.82,12.56,2.33,16.68c6.99,0.03,11.69-4.06,13.57-8.46
		c1.35,5.91,8.3,9.68,13.52,10.38c5.22-5.19,5.41-11.81,3.28-16.28c5.15,3.45,12.9,1.19,17.15-2.05
		C96.12,72.23,91.47,67.39,86.75,65.78z M91,54.57c-0.48,3.55-2.76,8.13-6.39,10.02l-9.96-0.68c-0.05-2.27-0.8-4.35-2.03-6.08
		l7.59-6.59C83.54,50.47,87.64,51.2,91,54.57z M65.91,43.66c2.29-3.5,7.28-5.24,10.96-5.23c3.04,3.95,3.09,8.34,1.7,11.59
		l-7.25,6.29c-1.6-1.56-3.66-2.63-5.97-2.99L65.91,43.66z M54.96,37c4.48,0.59,7.47,3.16,8.97,6.07l-0.58,10.11
		c-2.31,0.06-4.46,0.83-6.21,2.11l-6.29-7.18C50.18,44.1,52.43,39.53,54.96,37z M38.36,51.12c3.61-2.77,7.57-3.05,10.71-2.02
		l6.56,7.5c-1.49,1.57-2.53,3.57-2.89,5.81l-9.61-0.65C39.94,59.35,38.36,54.64,38.36,51.12z M47.72,76.79
		c-3.92,0.45-8.27-1.73-10.72-4.17c0.58-4.4,3.07-7.36,5.91-8.88l9.68,0.66c0.04,2.36,0.82,4.54,2.12,6.32L47.72,76.79z
		 M51.76,89.48c-2.11-2.76-3.69-7.38-2.7-11.21l6.97-6.05c1.63,1.55,3.73,2.6,6.05,2.92l-0.54,9.4
		C59.69,87.28,56.34,89.5,51.76,89.48z M73.27,91c-3.4-0.46-7.72-2.55-9.76-5.87l0.57-9.89c2.25-0.09,4.32-0.85,6.03-2.1l6.6,7.54
		C77.3,83.92,76.49,87.8,73.27,91z M77.92,79.03l-6.31-7.21c1.52-1.59,2.57-3.64,2.92-5.91l9.89,0.68c2.8,1.84,5.09,5.21,5.07,9.85
		C86.65,78.62,81.81,80.23,77.92,79.03z"/>
</g>
<g id="row2">
	<g id="flower:4_1_" style="display:none;">
		<path id="Shape_2_" style="display:inline;fill:#A32D63;" d="M57.169,82.48c0,0-1.88,4.19-5.45,6.29
			c-3.56,2.09,7.55,2.3,10.49-3.15c0.45-0.85,0.65-1.51,0.65-2.02C62.859,80.83,57.169,82.48,57.169,82.48z M80.609,88.77
			c-3.57-2.1-5.45-6.29-5.45-6.29s-5.68-1.65-5.68,1.12c0,0.51,0.19,1.17,0.65,2.02C73.059,91.07,84.169,90.86,80.609,88.77z
			 M62.859,82.99v19.58h6.62V82.99H62.859z M79.919,27.9v9.94c-0.63,0.05-1.29,0.1-2,0.18v-7.05c-2.96,1.42-9.99,5.1-14.73,10.04
			c-1.3,0.43-2.55,0.88-3.74,1.38c2.16-3.05,5.27-5.71,8.36-7.87l-13.27-5.99l0.1,12.21l2.62,2.62c-3.99,1.9-7.32,4.24-9.93,6.98
			V33.43l5.21,5.21V25.43l17.22,7.78c4.47-2.87,8.42-4.57,8.77-4.72L79.919,27.9z"/>
		<path id="Shape" style="display:inline;fill:#EB4D87;" d="M85.313,40.639c0,0-36.884-2.166-42.727,23.763
			S82.054,89.84,85.313,76.088c2.721-11.482-4.408-12.919-4.009-23.59C81.617,44.153,85.313,40.639,85.313,40.639z"/>
	</g>
	<path id="flower:3_1_" style="display:none;fill:#F05841;" d="M103.457,63.587c0,0-3.415,0.266-6.582-7.98
		c-3.167-8.236-9.036-5.125-9.036-5.125l-0.119-0.096c0,0,5.675-3.463,0-10.271c-5.664-6.819-3.729-9.61-3.729-9.61v-0.053
		c0,0-1.902,2.813-10.43,0.181c-8.528-2.632-9.674,3.836-9.674,3.836h-0.011c0,0-1.146-6.478-9.674-3.836
		c-8.528,2.632-10.43-0.181-10.43-0.181v0.053c0,0,1.935,2.791-3.729,9.599c-5.675,6.819,0,10.281,0,10.281l0.086,0.128
		c-0.303-0.149-5.956-2.866-9.014,5.157c-3.145,8.246-6.572,8.001-6.572,8.001L24.5,63.694c0,0,3.426,0.213,5.383,8.811
		c1.956,8.598,8.215,6.329,8.215,6.329v0.011c0,0-5.112,4.219,1.481,10.175c6.323,5.721,5.167,8.747,5.069,8.981l0.043-0.011
		c0,0,1.481-3.047,10.301-1.63c8.82,1.417,9.025-5.146,9.025-5.146l0.032,0.011c0,0,0.227,6.563,9.036,5.125
		c8.82-1.438,10.311,1.609,10.311,1.609l0.032,0.011c-0.097-0.234-1.254-3.26,5.058-8.992c6.572-5.977,1.448-10.185,1.448-10.185
		h0.011c0,0,6.258,2.248,8.193-6.35c1.946-8.598,5.361-8.822,5.361-8.822L103.457,63.587z M85.147,69.298
		c-1.2,5.338-5.08,3.942-5.08,3.942h-0.011c0,0,3.178,2.61-0.897,6.318c-4.075,3.708-3.124,5.583-3.124,5.583l-0.032-0.021
		c0,0-0.93-1.886-6.399-0.991c-5.458,0.895-5.599-3.175-5.599-3.175l-0.022-0.011c0,0-0.13,4.07-5.599,3.196
		c-5.469-0.884-6.388,1.001-6.388,1.001l-0.032,0.021c0,0,0.94-1.886-3.145-5.572c-3.88-3.527-1.189-6.062-0.93-6.307
		c-0.097,0.032-0.519,0.16-1.092,0.16c-1.243,0-3.189-0.607-3.978-4.102c-1.221-5.327-3.34-5.466-3.34-5.466l0.022-0.011
		c0,0,2.129,0.16,4.075-4.954c1.956-5.125,5.599-3.196,5.599-3.196l-0.065-0.085c0,0-3.513-2.152,0-6.371
		c3.513-4.23,2.313-5.966,2.313-5.966v-0.032c0,0,1.189,1.747,6.474,0.117c5.285-1.641,5.999,2.376,5.999,2.376l0.011,0.011
		c0,0,0.703-4.017,5.988-2.387c5.296,1.63,6.474-0.107,6.474-0.107v0.032c0,0-1.2,1.726,2.313,5.956c3.513,4.219,0,6.371,0,6.371
		l0.076,0.053c0,0,3.632-1.928,5.599,3.186c1.967,5.103,4.086,4.944,4.086,4.944l0.032,0.021
		C88.476,63.832,86.347,63.971,85.147,69.298z M78.565,64.535c0-0.586-3.383-1.065-7.566-1.065c-0.605,0-1.189,0.011-1.751,0.032
		c0.53-0.192,1.07-0.405,1.632-0.629c3.859-1.577,6.799-3.303,6.572-3.846c-0.227-0.533-3.534,0.298-7.404,1.875
		c-0.551,0.224-1.081,0.447-1.589,0.682c0.411-0.384,0.821-0.778,1.243-1.193c2.962-2.919,5.004-5.615,4.594-6.03
		c-0.422-0.405-3.156,1.609-6.118,4.528c-0.422,0.416-0.821,0.82-1.211,1.225c0.238-0.501,0.465-1.023,0.692-1.566
		c1.6-3.814,2.443-7.074,1.902-7.298c-0.551-0.224-2.302,2.674-3.902,6.478c-0.227,0.554-0.443,1.087-0.638,1.609
		c0.022-0.554,0.032-1.129,0.032-1.726c0-4.123-0.486-7.458-1.081-7.458s-1.081,3.335-1.081,7.458c0,0.597,0.011,1.172,0.032,1.726
		c-0.195-0.522-0.411-1.055-0.638-1.609c-1.6-3.804-3.351-6.701-3.902-6.478c-0.54,0.224,0.303,3.484,1.902,7.298
		c0.227,0.543,0.454,1.065,0.692,1.566c-0.378-0.405-0.789-0.81-1.211-1.225c-2.951-2.909-5.696-4.933-6.118-4.528
		c-0.411,0.416,1.643,3.122,4.594,6.03c0.421,0.416,0.832,0.82,1.243,1.193c-0.508-0.224-1.038-0.458-1.589-0.682
		c-3.859-1.577-7.177-2.408-7.404-1.875c-0.227,0.543,2.724,2.269,6.572,3.846c0.551,0.224,1.102,0.437,1.621,0.629
		c-0.562-0.021-1.135-0.032-1.74-0.032c-4.172,0-7.566,0.479-7.566,1.065s3.394,1.065,7.566,1.065c0.605,0,1.178-0.011,1.74-0.032
		c-0.519,0.192-1.07,0.405-1.621,0.629c-3.848,1.577-6.799,3.303-6.572,3.846c0.227,0.533,3.545-0.298,7.404-1.875
		c0.551-0.224,1.081-0.458,1.589-0.682c-0.411,0.373-0.821,0.778-1.243,1.193c-2.951,2.909-5.004,5.615-4.594,6.03
		c0.421,0.405,3.167-1.619,6.118-4.528c0.422-0.416,0.832-0.82,1.211-1.225c-0.227,0.501-0.465,1.023-0.692,1.566
		c-1.6,3.804-2.443,7.074-1.902,7.298c0.551,0.224,2.302-2.685,3.902-6.478c0.227-0.543,0.443-1.087,0.638-1.598
		c-0.022,0.554-0.032,1.119-0.032,1.715c0,4.113,0.486,7.458,1.081,7.458s1.081-3.345,1.081-7.458c0-0.597-0.011-1.161-0.032-1.715
		c0.195,0.511,0.411,1.055,0.638,1.598c1.6,3.793,3.351,6.701,3.902,6.478c0.54-0.224-0.303-3.495-1.902-7.298
		c-0.227-0.543-0.465-1.065-0.692-1.566c0.389,0.405,0.789,0.81,1.211,1.225c2.962,2.919,5.696,4.933,6.118,4.528
		c0.411-0.416-1.632-3.111-4.594-6.03c-0.422-0.416-0.832-0.81-1.243-1.193c0.508,0.234,1.038,0.458,1.589,0.682
		c3.869,1.577,7.177,2.408,7.404,1.875c0.227-0.543-2.713-2.269-6.572-3.846c-0.562-0.224-1.103-0.437-1.632-0.629
		c0.562,0.021,1.146,0.032,1.751,0.032C75.181,65.601,78.565,65.121,78.565,64.535z M66.318,65.366
		c-0.022,0.075-0.054,0.138-0.086,0.202c-0.119,0.224-0.27,0.426-0.443,0.607c-0.043,0.043-0.097,0.096-0.151,0.139
		c-0.184,0.171-0.411,0.309-0.648,0.405c-0.054,0.032-0.119,0.053-0.173,0.075c-0.238,0.075-0.486,0.128-0.746,0.139h-0.195
		c-0.259-0.011-0.508-0.064-0.746-0.139c-0.065-0.021-0.119-0.053-0.184-0.075c-0.238-0.107-0.454-0.245-0.638-0.405
		c-0.054-0.043-0.108-0.096-0.151-0.139c-0.173-0.181-0.324-0.373-0.432-0.597c-0.032-0.064-0.065-0.128-0.097-0.202
		c-0.097-0.224-0.151-0.469-0.173-0.724c-0.011-0.075-0.011-0.139-0.011-0.213c0-0.011,0-0.011,0-0.021
		c0-0.256,0.043-0.49,0.108-0.724c0.032-0.085,0.065-0.171,0.097-0.256c0.108-0.224,0.238-0.426,0.4-0.607
		c0.054-0.075,0.119-0.139,0.195-0.202c0.173-0.16,0.378-0.309,0.595-0.416c0.086-0.043,0.173-0.085,0.27-0.117
		c0.227-0.075,0.465-0.128,0.713-0.139c0.054-0.011,0.097-0.011,0.151-0.011c0.054,0,0.097,0,0.151,0.011
		c0.249,0.011,0.486,0.064,0.713,0.139c0.097,0.032,0.184,0.075,0.27,0.117c0.216,0.107,0.422,0.256,0.594,0.416
		c0.076,0.064,0.151,0.139,0.205,0.213c0.162,0.181,0.292,0.384,0.389,0.607c0.032,0.075,0.065,0.16,0.097,0.245
		c0.065,0.234,0.108,0.469,0.108,0.724c0,0.011,0,0.011,0,0.021c0,0.075,0,0.139-0.011,0.213
		C66.47,64.908,66.416,65.142,66.318,65.366z"/>
	<path id="flower:2_1_" style="display:none;fill-rule:evenodd;clip-rule:evenodd;fill:#F7883A;" d="M99,74.56
		c-0.07,0.04-6.8,4.03-7.69,6.09l-0.04,0.09l-0.08,0.05c-0.09,0.06-8.99,5.67-16.58,1.58c-0.02-0.01-0.99-0.55-2.29-1.35
		c4.89,3.97,10.95,9.98,10.57,15.12v8.08l-0.49-0.34c-0.04-0.02-4.03-2.76-6.42-3.06l-0.08-0.01l-0.06-0.04
		c-0.09-0.06-8.85-5.89-12.15-14.01c-0.29,7.45-1.66,16.08-6.29,18.39c-0.22,0.12-5.47,2.87-8.07,1.89l-0.25-0.09l0.05-0.26
		c0.01-0.05-1.71-3.36-0.3-7.95l-0.04-0.1l0.04-0.11c0.03-0.09,3.07-8.62,6.38-15.38c-6.5,4.72-7.56,5.95-7.67,6.24l-0.01,0.02
		l-0.01,0.02c-0.03,0.05-0.77,1.28-2.87,1.76c-2.5,0.58-7.21,0.11-15.4-5.41L29,85.62l0.16-0.26c0.35-0.57,8.65-13.89,18.1-12.63
		c0.03,0,2.6,0.14,5.56,0.53c-11.87-6.54-11.21-20.99-11.2-21.15l0.01-0.13l0.1-0.09c1.77-1.47,2.7-6.93,2.71-6.99l0.1-0.65
		l0.44,0.5c2.11,2.4,5.47,3.64,5.5,3.65c6.82,1.46,10.36,6.21,12.18,11.2c0.12,3.63-0.22,7.39-1.41,10.79
		c-1.17,0.85-1.94,2.24-1.94,3.8c0,2.59,2.1,4.68,4.69,4.68s4.69-2.09,4.69-4.68c0-0.24-0.02-0.47-0.06-0.69
		c2.12-5.77,2.37-12.12,1.76-18.02c0.16-0.07,0.32-0.14,0.49-0.2c1.95-0.93,7.08-3.83,7.33-5.99l0.6-0.06
		c0.22,0.67,4.98,15.74-1,21.28c7.26-1.59,12.32-1.15,14.97,1.35c0.04,0.03,3.94,3,5.94,2.14L99,74.56z M64.595,28.828l-2.94,0.594
		c6.448,31.939,1.034,44.585,0.979,44.709L64,74.75l-1.364-0.625l2.728,1.249C65.608,74.84,71.276,61.92,64.595,28.828z
		 M70.331,29.583c0,1.105-0.895,2-2,2s-2-0.895-2-2c0-1.105,0.895-2,2-2S70.331,28.478,70.331,29.583z M69.331,34.583
		c-1.105,0-2,0.895-2,2s0.895,2,2,2s2-0.895,2-2S70.435,34.583,69.331,34.583z M70.331,41.583c-1.105,0-2,0.895-2,2s0.895,2,2,2
		s2-0.895,2-2S71.435,41.583,70.331,41.583z M60.331,31.583c0,1.105-0.895,2-2,2c-1.105,0-2-0.895-2-2s0.895-2,2-2
		C59.435,29.583,60.331,30.478,60.331,31.583z M59.331,36.583c-1.105,0-2,0.895-2,2s0.895,2,2,2c1.105,0,2-0.895,2-2
		S60.435,36.583,59.331,36.583z M60.331,43.583c-1.105,0-2,0.895-2,2s0.895,2,2,2c1.105,0,2-0.895,2-2S61.435,43.583,60.331,43.583z
		 M65,23.75c0,1.657-1.343,3-3,3s-3-1.343-3-3c0-1.657,1.343-3,3-3S65,22.093,65,23.75z"/>
	<path id="flower:1_1_" style="display:none;fill-rule:evenodd;clip-rule:evenodd;fill:#169CAF;" d="M95.433,60.243
		c1.176,2.442,0.68,8.286-2.99,9.239c-3.669,0.953-28.319-5.217-28.319-5.217S80.569,44.247,84.077,42.78
		c3.509-1.468,7.222,2.96,7.656,5.652c0.434,2.693-0.814,4.391-0.006,6.531C92.534,57.104,94.258,57.801,95.433,60.243z
		 M50.464,37.85c-0.261-3.914,4.946-6.209,7.549-5.804c2.603,0.404,3.774,2.159,5.986,2.025c2.213-0.135,3.385-1.621,5.988-2.025
		c2.602-0.405,7.808,1.89,7.548,5.804c-0.261,3.915-13.536,26.322-13.536,26.322S50.725,41.764,50.464,37.85z M35.557,69.482
		c-3.67-0.953-4.165-6.797-2.99-9.239c1.176-2.442,3.147-3.056,3.706-5.28c0.561-2.223-0.439-3.838-0.006-6.531
		c0.434-2.693,4.145-7.118,7.655-5.652c3.509,1.467,19.954,21.484,19.954,21.484S39.226,70.435,35.557,69.482z M63.923,64.416
		c0,0-1.959,26.22-3.966,29.547c-2.009,3.325-7.521,2.008-9.397,0.092c-1.877-1.914-1.83-4.048-3.696-5.287
		c-1.866-1.241-3.656-0.753-5.991-2.012c-2.334-1.26-5.246-6.29-2.817-9.298C40.485,74.451,63.923,64.416,63.923,64.416z
		 M89.944,77.459c2.429,3.008-0.483,8.038-2.818,9.298c-2.334,1.26-4.277,0.555-5.99,2.012c-1.715,1.458-1.82,3.373-3.696,5.287
		c-1.876,1.915-7.389,3.232-9.396-0.092c-2.007-3.326-3.968-29.547-3.968-29.547S87.515,74.451,89.944,77.459z"/>
</g>
<g id="row1">
	<path id="flower:4" style="display:none;fill-rule:evenodd;clip-rule:evenodd;fill:#F7883A;" d="M96,64c0-3.54-2.86-6.66-6.4-6.41
		c-1.32,0.09-5.24,1.01-9.63,2.13c4.36-1.23,8.21-2.39,9.41-2.97c3.18-1.55,4.1-5.69,2.33-8.75c-1.76-3.06-5.81-4.34-8.75-2.35
		c-1.09,0.74-4.03,3.5-7.27,6.66c3.16-3.24,5.92-6.18,6.66-7.27c1.99-2.94,0.71-6.99-2.35-8.75c-3.06-1.77-7.2-0.85-8.75,2.33
		c-0.58,1.2-1.74,5.05-2.97,9.4c1.12-4.38,2.04-8.3,2.13-9.62C70.66,34.86,67.53,32,64,32s-6.66,2.86-6.41,6.4
		c0.09,1.32,1.01,5.24,2.13,9.62c-1.23-4.35-2.39-8.2-2.97-9.4c-1.55-3.18-5.69-4.1-8.75-2.33c-3.06,1.76-4.34,5.81-2.35,8.75
		c0.74,1.09,3.49,4.03,6.65,7.26c-3.23-3.15-6.17-5.91-7.27-6.65c-2.93-1.99-6.98-0.71-8.74,2.35c-1.77,3.06-0.85,7.2,2.33,8.75
		c1.2,0.58,5.05,1.74,9.4,2.97c-4.38-1.12-8.3-2.04-9.62-2.13C34.86,57.34,32,60.47,32,64c0,3.53,2.86,6.66,6.4,6.41
		c1.32-0.09,5.24-1.01,9.62-2.13c-4.35,1.23-8.2,2.39-9.4,2.97c-3.18,1.55-4.1,5.69-2.33,8.75c1.76,3.06,5.81,4.34,8.74,2.35
		c1.1-0.74,4.04-3.5,7.28-6.66c-3.16,3.24-5.92,6.18-6.66,7.27c-1.99,2.94-0.71,6.98,2.35,8.75c3.06,1.77,7.2,0.85,8.75-2.33
		c0.58-1.2,1.74-5.05,2.97-9.4c-1.12,4.38-2.04,8.3-2.13,9.62C57.34,93.14,60.47,96,64,96s6.66-2.86,6.41-6.4
		c-0.09-1.32-1.01-5.24-2.13-9.63c1.23,4.36,2.39,8.21,2.97,9.41c1.55,3.18,5.69,4.1,8.75,2.33c3.06-1.77,4.34-5.81,2.35-8.75
		c-0.74-1.1-3.5-4.03-6.66-7.27c3.24,3.16,6.18,5.92,7.27,6.66c2.94,1.99,6.99,0.71,8.75-2.35c1.77-3.06,0.85-7.2-2.33-8.75
		c-1.2-0.58-5.05-1.75-9.41-2.97c4.39,1.12,8.31,2.04,9.63,2.13C93.14,70.66,96,67.53,96,64z M71.42,53.04
		c0.98-0.98,2.56-0.98,3.54,0c0.98,0.98,0.98,2.56,0,3.54c-0.98,0.97-2.56,0.97-3.54,0C70.45,55.6,70.45,54.02,71.42,53.04z
		 M64,48.5c1.38,0,2.5,1.12,2.5,2.5s-1.12,2.5-2.5,2.5s-2.5-1.12-2.5-2.5S62.62,48.5,64,48.5z M48.5,64c0-1.38,1.12-2.5,2.5-2.5
		s2.5,1.12,2.5,2.5s-1.12,2.5-2.5,2.5S48.5,65.38,48.5,64z M56.58,74.96c-0.98,0.98-2.56,0.98-3.54,0c-0.98-0.98-0.98-2.56,0-3.54
		c0.98-0.97,2.56-0.97,3.54,0C57.55,72.4,57.55,73.98,56.58,74.96z M56.58,56.58c-0.98,0.97-2.56,0.97-3.54,0
		c-0.98-0.98-0.98-2.56,0-3.54c0.98-0.98,2.56-0.98,3.54,0C57.55,54.02,57.55,55.6,56.58,56.58z M64,79.5c-1.38,0-2.5-1.12-2.5-2.5
		s1.12-2.5,2.5-2.5s2.5,1.12,2.5,2.5S65.38,79.5,64,79.5z M64,70.5c-3.59,0-6.5-2.91-6.5-6.5c0-3.59,2.91-6.5,6.5-6.5
		s6.5,2.91,6.5,6.5C70.5,67.59,67.59,70.5,64,70.5z M74.96,74.96c-0.98,0.98-2.56,0.98-3.54,0c-0.97-0.98-0.97-2.56,0-3.54
		c0.98-0.97,2.56-0.97,3.54,0C75.94,72.4,75.94,73.98,74.96,74.96z M77,66.5c-1.38,0-2.5-1.12-2.5-2.5s1.12-2.5,2.5-2.5
		s2.5,1.12,2.5,2.5S78.38,66.5,77,66.5z"/>
	<path id="flower:3" style="display:none;fill-rule:evenodd;clip-rule:evenodd;fill:#82CDC9;" d="M74.08,66.7
		C77.55,67.27,88.43,68.57,96,64c-7.57-4.57-18.45-3.27-21.92-2.7c3.29-1.24,13.36-5.56,17.63-13.3
		c-8.83-0.17-17.61,6.39-20.33,8.62c2.23-2.72,8.79-11.5,8.62-20.33c-7.74,4.26-12.06,14.34-13.3,17.63
		C67.27,50.45,68.57,39.57,64,32c-4.57,7.57-3.27,18.45-2.7,21.92c-1.24-3.29-5.56-13.36-13.3-17.63
		c-0.17,8.84,6.39,17.61,8.62,20.33C53.9,54.39,45.13,47.83,36.29,48c4.26,7.74,14.34,12.06,17.63,13.3
		C50.45,60.73,39.57,59.43,32,64c7.56,4.57,18.45,3.27,21.92,2.7c-3.29,1.24-13.37,5.56-17.63,13.3c8.83,0.17,17.61-6.39,20.33-8.62
		c-2.23,2.72-8.79,11.5-8.62,20.33c7.74-4.26,12.06-14.34,13.3-17.63C60.73,77.55,59.43,88.43,64,96c4.57-7.56,3.27-18.45,2.7-21.92
		c1.24,3.29,5.56,13.37,13.3,17.63c0.17-8.83-6.39-17.61-8.62-20.33c2.72,2.23,11.5,8.79,20.33,8.62
		C87.45,72.26,77.37,67.94,74.08,66.7z M64,70.17c-3.41,0-6.17-2.76-6.17-6.17c0-3.41,2.76-6.17,6.17-6.17s6.17,2.76,6.17,6.17
		C70.17,67.41,67.41,70.17,64,70.17z"/>
	<path id="flower:2" style="display:none;fill-rule:evenodd;clip-rule:evenodd;fill:#82CDC9;" d="M70.219,66.152
		c1.225,0.654,17.621,7.391,18.563,8.046c1.601,0.562,2.826,2.152,2.826,3.931c0,0.935-0.942,3.087-3.393,3.087
		c-1.601,0-2.543-0.562-3.485-0.935c-0.942-0.563-16.113-10.761-16.113-10.761v0.282c0.942,0.935,10.836,13.004,11.778,14.221
		c0.659,1.216,1.601,2.714,1.601,4.304c0,2.433-2.543,3.369-3.768,3.369c-1.792,0-3.393-1.217-4.334-3.65
		c-0.567-1.308-7.444-15.156-8.011-16.373h-0.375c0,1.216,2.543,16.935,2.543,18.806C68.051,92.35,67.676,96,64,96
		c-3.676,0-4.335-3.65-4.335-5.521c0-1.589,2.451-15.719,2.826-18.806l-0.375-0.282c-0.942,2.152-6.502,13.848-8.011,16.654
		c-1.225,2.433-2.826,3.65-4.334,3.65c-1.6,0-3.767-0.936-3.767-3.369c0-1.59,0.942-3.369,1.6-4.304
		c1.225-1.871,10.555-11.975,11.778-14.221l-0.375-0.282c0,0-15.171,10.198-16.113,10.761c-0.567,0.654-1.792,0.935-3.015,0.935
		c-2.828,0-3.771-1.87-3.771-2.714c0-2.152,1.509-3.742,2.826-4.304c0.944-0.654,17.338-7.392,18.563-7.765v-0.563
		c-0.942,0-17.054,2.152-18.563,2.152C36.768,68.023,33,67.65,33,64c0-4.023,3.768-4.023,5.935-4.023
		c1.792,0,16.679,2.152,18.563,2.152l0.284-0.282c-1.509-0.654-17.055-7.11-18.847-8.045c-1.318-0.563-2.826-2.152-2.826-3.932
		c0-2.525,1.509-4.023,3.393-4.023c0.659,0,1.225,0,1.884,0.281C45.061,48,58.159,58.198,59.007,58.479l0.375-0.282
		c-0.942-0.935-10.553-12.35-11.778-14.221c-0.375-0.562-1.884-2.433-1.884-3.929c0-2.527,2.167-3.744,4.334-3.744
		c1.509,0,2.826,1.217,4.051,3.744c1.225,2.152,7.727,16.279,7.727,16.279h0.659c0,0-2.826-16.654-2.826-18.525
		C59.665,35.65,60.324,32,64,32c3.676,0,4.051,3.65,4.051,5.802c0,1.308-2.168,16.936-2.543,18.525h0.659
		c1.225-2.806,7.16-15.064,7.727-16.279c1.225-2.246,2.826-4.025,4.71-4.025c1.225,0,3.393,1.498,3.393,4.025
		c0,1.496-0.942,2.994-1.601,3.929c-0.566,0.936-11.12,13.285-11.778,14.502l0.375,0.281C69.56,58.198,82.939,48,86.331,46.502
		c0.566-0.373,1.509-0.373,1.884-0.373c2.167,0,3.676,1.59,3.676,3.742c0,2.152-1.225,3.369-2.826,3.932
		c-1.225,0.654-17.622,7.391-18.563,8.045l0.283,0.282c1.318-0.282,16.772-2.152,18.28-2.152C90.949,59.696,95,59.977,95,64
		c0,3.65-4.051,4.022-5.935,4.022c-2.168,0-15.738-1.589-18.563-2.152L70.219,66.152z M65.884,64.281
		c0-0.563-0.659-1.779-1.884-1.779c-1.225,0-1.884,1.216-1.884,1.779c0,0.935,0.659,1.871,1.884,1.871
		C65.225,66.152,65.884,65.217,65.884,64.281z"/>
	<path id="flower:1" style="display:none;fill-rule:evenodd;clip-rule:evenodd;fill:#845E12;" d="M96,59.609
		c0-7.984-6.199-14.459-13.83-14.459c-1.514,0-2.977,0.255-4.349,0.734C77.78,37.921,71.611,31.5,64,31.5
		c-7.611,0-13.79,6.421-13.83,14.384c-1.362-0.478-2.825-0.734-4.349-0.734c-7.632,0-13.82,6.474-13.82,14.459
		c0,6.485,4.085,11.971,9.705,13.81c-1.707,2.403-2.713,5.39-2.713,8.611c0,7.995,6.189,14.469,13.82,14.469
		c4.593,0,8.668-2.35,11.188-5.964c2.51,3.615,6.585,5.964,11.178,5.964c7.632,0,13.83-6.475,13.83-14.469
		c0-3.221-1.016-6.209-2.723-8.611C91.905,71.58,96,66.094,96,59.609z M64,76.641c-5.985,0-10.833-5.071-10.833-11.333
		c0-6.262,4.847-11.333,10.833-11.333c5.975,0,10.833,5.071,10.833,11.333C74.833,71.57,69.975,76.641,64,76.641z"/>
</g>
</svg>
