<svg width="16" height="16" viewBox="0 0 16 16" fill="none" xmlns="http://www.w3.org/2000/svg">
<g id="Link">
<path id="Vector" d="M8.59623 11.6475C8.68993 11.7413 8.74257 11.8684 8.74257 12.0009C8.74257 12.1335 8.68993 12.2606 8.59623 12.3544L7.97498 12.9794C7.31799 13.636 6.42709 14.0046 5.49826 14.0044C4.56942 14.0041 3.67875 13.6348 3.02217 12.9778C2.3656 12.3208 1.9969 11.4299 1.99719 10.5011C1.99749 9.57225 2.36674 8.68158 3.02373 8.025L4.53123 6.5175C5.16229 5.88594 6.01084 5.51942 6.90325 5.49293C7.79566 5.46644 8.66446 5.78199 9.33186 6.375C9.38111 6.41867 9.42127 6.4716 9.45006 6.53079C9.47884 6.58997 9.49569 6.65425 9.49964 6.71995C9.50358 6.78565 9.49455 6.85148 9.47306 6.91368C9.45156 6.97589 9.41802 7.03326 9.37436 7.0825C9.3307 7.13175 9.27776 7.17191 9.21857 7.2007C9.15939 7.22949 9.09511 7.24633 9.02941 7.25028C8.96371 7.25423 8.89788 7.24519 8.83568 7.2237C8.77347 7.2022 8.71611 7.16867 8.66686 7.125C8.19018 6.70169 7.5698 6.47648 6.93257 6.49541C6.29535 6.51435 5.68943 6.77601 5.23873 7.22688L3.73123 8.7325C3.2623 9.20144 2.99885 9.83745 2.99885 10.5006C2.99885 11.1638 3.2623 11.7998 3.73123 12.2688C4.20017 12.7377 4.83618 13.0011 5.49936 13.0011C6.16254 13.0011 6.79855 12.7377 7.26748 12.2688L7.88873 11.6475C7.93517 11.601 7.99032 11.5641 8.05101 11.539C8.11171 11.5138 8.17678 11.5009 8.24249 11.5009C8.30819 11.5009 8.37326 11.5138 8.43396 11.539C8.49465 11.5641 8.5498 11.601 8.59623 11.6475ZM12.9762 3.0225C12.3191 2.36689 11.4288 1.99869 10.5006 1.99869C9.57239 1.99869 8.68207 2.36689 8.02498 3.0225L7.40373 3.64438C7.31 3.7382 7.25737 3.86541 7.25743 3.99803C7.25749 4.13066 7.31023 4.25783 7.40405 4.35156C7.49787 4.4453 7.62508 4.49793 7.75771 4.49787C7.89033 4.49781 8.0175 4.44507 8.11123 4.35125L8.73248 3.73C9.20142 3.26107 9.83743 2.99762 10.5006 2.99762C11.1638 2.99762 11.7998 3.26107 12.2687 3.73C12.7377 4.19894 13.0011 4.83495 13.0011 5.49813C13.0011 6.1613 12.7377 6.79732 12.2687 7.26625L10.7612 8.775C10.3103 9.22561 9.70424 9.48692 9.06702 9.50551C8.4298 9.5241 7.80955 9.29855 7.33311 8.875C7.28386 8.83134 7.2265 8.7978 7.16429 8.7763C7.10209 8.75481 7.03626 8.74578 6.97056 8.74972C6.83788 8.75769 6.71379 8.81804 6.62561 8.9175C6.58195 8.96675 6.54841 9.02411 6.52691 9.08632C6.50542 9.14852 6.49639 9.21436 6.50033 9.28005C6.5083 9.41273 6.56865 9.53682 6.66811 9.625C7.33536 10.2182 8.20406 10.5339 9.09647 10.5077C9.98888 10.4814 10.8375 10.1151 11.4687 9.48375L12.9762 7.97625C13.6322 7.31911 14.0007 6.42853 14.0007 5.5C14.0007 4.57148 13.6322 3.68089 12.9762 3.02375V3.0225Z" fill="#C9C9C9"/>
</g>
</svg>
