<svg width="17" height="16" viewBox="0 0 17 16" fill="none" xmlns="http://www.w3.org/2000/svg">
<g id="Link">
<path id="Vector" d="M9.09623 11.6475C9.18993 11.7413 9.24257 11.8684 9.24257 12.0009C9.24257 12.1335 9.18993 12.2606 9.09623 12.3544L8.47498 12.9794C7.81799 13.6359 6.92709 14.0046 5.99826 14.0044C5.06942 14.0041 4.17875 13.6348 3.52217 12.9778C2.8656 12.3208 2.4969 11.4299 2.49719 10.5011C2.49749 9.57225 2.86674 8.68157 3.52373 8.025L5.03123 6.5175C5.66229 5.88594 6.51084 5.51941 7.40325 5.49292C8.29566 5.46643 9.16446 5.78198 9.83186 6.375C9.88111 6.41866 9.92127 6.4716 9.95006 6.53078C9.97884 6.58997 9.99569 6.65425 9.99964 6.71994C10.0036 6.78564 9.99455 6.85147 9.97306 6.91368C9.95156 6.97589 9.91802 7.03325 9.87436 7.0825C9.8307 7.13174 9.77776 7.17191 9.71857 7.20069C9.65939 7.22948 9.59511 7.24633 9.52941 7.25028C9.46371 7.25422 9.39788 7.24519 9.33568 7.22369C9.27347 7.2022 9.21611 7.16866 9.16686 7.125C8.69018 6.70169 8.0698 6.47647 7.43257 6.49541C6.79535 6.51435 6.18943 6.776 5.73873 7.22687L4.23123 8.7325C3.7623 9.20143 3.49885 9.83745 3.49885 10.5006C3.49885 11.1638 3.7623 11.7998 4.23123 12.2687C4.70017 12.7377 5.33618 13.0011 5.99936 13.0011C6.66254 13.0011 7.29855 12.7377 7.76748 12.2687L8.38873 11.6475C8.43517 11.601 8.49032 11.5641 8.55101 11.539C8.61171 11.5138 8.67678 11.5009 8.74249 11.5009C8.80819 11.5009 8.87326 11.5138 8.93396 11.539C8.99465 11.5641 9.0498 11.601 9.09623 11.6475ZM13.4762 3.0225C12.8191 2.36688 11.9288 1.99869 11.0006 1.99869C10.0724 1.99869 9.18207 2.36688 8.52498 3.0225L7.90373 3.64437C7.81 3.73819 7.75737 3.86541 7.75743 3.99803C7.75749 4.13065 7.81023 4.25782 7.90405 4.35156C7.99787 4.4453 8.12508 4.49793 8.25771 4.49787C8.39033 4.49781 8.5175 4.44507 8.61123 4.35125L9.23248 3.73C9.70142 3.26106 10.3374 2.99762 11.0006 2.99762C11.6638 2.99762 12.2998 3.26106 12.7687 3.73C13.2377 4.19893 13.5011 4.83495 13.5011 5.49812C13.5011 6.1613 13.2377 6.79731 12.7687 7.26625L11.2612 8.775C10.8103 9.2256 10.2042 9.48692 9.56702 9.50551C8.9298 9.5241 8.30955 9.29855 7.83311 8.875C7.78386 8.83133 7.7265 8.7978 7.66429 8.7763C7.60209 8.75481 7.53626 8.74577 7.47056 8.74972C7.33788 8.75769 7.21379 8.81804 7.12561 8.9175C7.08195 8.96674 7.04841 9.02411 7.02691 9.08631C7.00542 9.14852 6.99639 9.21435 7.00033 9.28005C7.0083 9.41273 7.06865 9.53681 7.16811 9.625C7.83536 10.2182 8.70406 10.5339 9.59647 10.5077C10.4889 10.4814 11.3375 10.1151 11.9687 9.48375L13.4762 7.97625C14.1322 7.31911 14.5007 6.42852 14.5007 5.5C14.5007 4.57147 14.1322 3.68089 13.4762 3.02375V3.0225Z" fill="#6543D0"/>
</g>
</svg>
