<svg width="16" height="16" viewBox="0 0 16 16" fill="none" xmlns="http://www.w3.org/2000/svg">
<g id="PencilSimple">
<path id="Vector" d="M14.2069 4.58563L11.4144 1.7925C11.3215 1.69962 11.2113 1.62594 11.0899 1.57567C10.9686 1.5254 10.8385 1.49953 10.7072 1.49953C10.5759 1.49953 10.4458 1.5254 10.3245 1.57567C10.2031 1.62594 10.0929 1.69962 10 1.7925L2.29313 9.5C2.19987 9.59252 2.12593 9.70266 2.0756 9.82401C2.02528 9.94536 1.99959 10.0755 2.00001 10.2069V13C2.00001 13.2652 2.10536 13.5196 2.2929 13.7071C2.48043 13.8946 2.73479 14 3.00001 14H5.79313C5.9245 14.0004 6.05464 13.9747 6.17599 13.9244C6.29735 13.8741 6.40748 13.8001 6.50001 13.7069L14.2069 6C14.2998 5.90714 14.3734 5.79689 14.4237 5.67555C14.474 5.55421 14.4999 5.42415 14.4999 5.29281C14.4999 5.16147 14.474 5.03142 14.4237 4.91008C14.3734 4.78874 14.2998 4.67849 14.2069 4.58563ZM5.79313 13H3.00001V10.2069L8.50001 4.70688L11.2931 7.5L5.79313 13ZM12 6.7925L9.20688 4L10.7069 2.5L13.5 5.2925L12 6.7925Z" fill="white"/>
</g>
</svg>
