<svg width="16" height="17" viewBox="0 0 16 17" fill="none" xmlns="http://www.w3.org/2000/svg">
<g id="ThumbsUp">
<path id="Vector" d="M14.625 5.5075C14.4842 5.34795 14.3111 5.22019 14.1171 5.13269C13.9231 5.04519 13.7128 4.99996 13.5 5H10V4C10 3.33696 9.73661 2.70107 9.26777 2.23223C8.79893 1.76339 8.16304 1.5 7.5 1.5C7.40711 1.49993 7.31604 1.52574 7.237 1.57454C7.15795 1.62333 7.09407 1.69318 7.0525 1.77625L4.69125 6.5H2C1.73478 6.5 1.48043 6.60536 1.29289 6.79289C1.10536 6.98043 1 7.23478 1 7.5V13C1 13.2652 1.10536 13.5196 1.29289 13.7071C1.48043 13.8946 1.73478 14 2 14H12.75C13.1154 14.0001 13.4684 13.8668 13.7425 13.6252C14.0166 13.3835 14.1931 13.0501 14.2388 12.6875L14.9888 6.6875C15.0153 6.47626 14.9966 6.26179 14.9339 6.05833C14.8712 5.85488 14.7659 5.66711 14.625 5.5075ZM2 7.5H4.5V13H2V7.5ZM13.9963 6.5625L13.2463 12.5625C13.231 12.6834 13.1722 12.7945 13.0808 12.8751C12.9895 12.9556 12.8718 13 12.75 13H5.5V7.11812L7.79437 2.52875C8.13443 2.59681 8.4404 2.7806 8.66021 3.04884C8.88002 3.31708 9.0001 3.6532 9 4V5.5C9 5.63261 9.05268 5.75979 9.14645 5.85355C9.24021 5.94732 9.36739 6 9.5 6H13.5C13.571 5.99998 13.6411 6.01505 13.7058 6.04423C13.7704 6.0734 13.8282 6.11601 13.8751 6.16922C13.9221 6.22242 13.9571 6.28501 13.978 6.35282C13.9989 6.42063 14.0051 6.4921 13.9963 6.5625Z" fill="#D9D8DC"/>
</g>
</svg>
