<svg width="136" height="120" viewBox="0 0 136 120" fill="none" xmlns="http://www.w3.org/2000/svg">
<g clip-path="url(#clip0_23_2794)">
<path d="M20.1403 96.3678L16.0375 93.754C15.849 91.4594 15.7902 89.1559 15.8611 86.8546L17.9894 87.3984L15.8888 86.0601C16.0048 83.2154 16.2617 81.3389 16.2617 81.3389C16.2617 81.3389 24.5572 86.7272 29.8478 94.0308L28.9456 100.208L31.0972 95.8881C31.6475 96.769 32.1419 97.6838 32.5774 98.6268C36.9364 108.15 37.3599 117.293 33.5234 119.049C29.6869 120.805 23.0431 114.509 18.6841 104.986C17.3328 102.034 16.5868 98.6399 16.2003 95.3611L20.1403 96.3678Z" fill="#D0D0D0"/>
<path d="M11.7128 105.56L6.84948 105.443C5.50204 103.576 4.26097 101.634 3.13218 99.6278L5.23516 98.9931L2.74517 98.9334C1.37403 96.4382 0.624023 94.699 0.624023 94.699C0.624023 94.699 10.5105 95.0237 18.8148 98.5412L21.2354 104.295L20.8443 99.4853C21.7708 99.955 22.6668 100.483 23.5271 101.065C32.181 106.963 37.2698 114.572 34.8933 118.058C32.5168 121.545 23.575 119.589 14.9211 113.69C12.2383 111.862 9.84527 109.341 7.81959 106.734L11.7128 105.56Z" fill="#D0D0D0"/>
<path d="M81.0257 33.6842L77.2146 33.2358L75.8696 44.8932L72.4354 60.9911C71.9579 61.2236 71.5682 61.6041 71.3244 62.076C71.0806 62.5478 70.9957 63.0858 71.0823 63.6098C71.169 64.1338 71.4225 64.6158 71.8052 64.9841C72.1879 65.3524 72.6793 65.5872 73.2062 65.6537C73.7332 65.7201 74.2675 65.6146 74.7296 65.3529C75.1918 65.0911 75.557 64.6872 75.771 64.2011C75.985 63.715 76.0363 63.1728 75.9173 62.6552C75.7983 62.1376 75.5153 61.6722 75.1104 61.3285L78.5597 51.8428L81.0257 33.6842Z" fill="#FFB6B6"/>
<path d="M86.5615 116.791H83.4217L81.9277 104.679L86.562 104.68L86.5615 116.791Z" fill="#FFB6B6"/>
<path d="M87.3623 119.834L77.2378 119.834V119.706C77.2379 118.661 77.6531 117.659 78.3921 116.92C79.1311 116.181 80.1334 115.765 81.1785 115.765H81.1788L87.3624 115.766L87.3623 119.834Z" fill="#2F2E41"/>
<path d="M110.659 115.078L107.576 115.673L103.812 104.065L108.363 103.187L110.659 115.078Z" fill="#FFB6B6"/>
<path d="M112.022 117.915L102.082 119.834L102.057 119.709C101.859 118.683 102.077 117.62 102.662 116.754C103.248 115.888 104.153 115.29 105.179 115.092L105.179 115.092L111.251 113.92L112.022 117.915Z" fill="#2F2E41"/>
<path d="M81.6381 14.5804L83.4625 18.0806L97.1265 15.0669L95.6296 8.2804C94.4448 2.90867 89.695 -0.97079 84.3234 0.213987C78.9518 1.39876 76.4452 6.64913 77.63 12.0209L79.8319 18.8814L82.0597 18.39L81.6381 14.5804Z" fill="#2F2E41"/>
<path d="M76.766 53.1879C76.766 53.1879 75.4209 59.9133 77.2143 69.7772C79.0078 79.6412 79.4561 83.9006 79.4561 83.9006C79.4561 83.9006 78.111 85.4698 79.0078 86.3666C79.9045 87.2633 79.0078 89.0567 79.0078 89.0567L81.0254 110.802L87.975 109.681L87.0783 89.2809C87.0783 89.2809 87.975 87.4875 87.5266 87.0391C87.0783 86.5907 87.975 83.9006 87.975 83.9006L89.0959 62.6035L96.0455 85.9182C96.0455 85.9182 95.3729 86.8149 96.0455 87.4875C96.718 88.16 98.0631 91.5227 98.0631 91.5227L102.547 107.215L109.72 105.87L105.685 87.9358C105.685 87.9358 106.134 86.8149 105.461 86.1424C105.265 85.9366 105.122 85.6863 105.043 85.413C104.965 85.1397 104.955 84.8515 105.013 84.5731C105.013 84.5731 105.685 83.9006 104.788 83.0039C103.892 82.1071 103.443 78.5203 103.443 78.5203C103.443 78.5203 102.771 54.533 100.529 53.1879C98.2873 51.8428 76.766 53.1879 76.766 53.1879Z" fill="#2F2E41"/>
<path d="M86.9025 16.0947C90.3692 16.0947 93.1796 13.2844 93.1796 9.81769C93.1796 6.35098 90.3692 3.54065 86.9025 3.54065C83.4358 3.54065 80.6255 6.35098 80.6255 9.81769C80.6255 13.2844 83.4358 16.0947 86.9025 16.0947Z" fill="#FFB6B6"/>
<path d="M95.7487 17.8528C95.7487 17.8528 100.305 17.3191 101.65 18.6642L100.305 45.7899C100.305 45.7899 101.202 46.4625 100.753 48.0318C100.493 49.0617 100.493 50.1403 100.753 51.1703C100.753 51.1703 102.098 52.7395 101.426 53.4121C100.753 54.0846 76.5418 53.6363 76.5418 53.6363C76.5418 53.6363 75.6451 52.067 76.9902 51.1703C78.3353 50.2736 77.6627 47.8076 77.6627 47.8076C77.6627 47.8076 77.2144 47.135 78.3353 46.0141C79.4562 44.8932 80.3529 35.7018 80.3529 35.7018L77.4386 24.4928C77.4386 24.4928 80.3722 21.1816 83.7253 20.9317L95.7487 17.8528Z" fill="#C3C3C3"/>
<path d="M80.9115 24.6471L77.4384 24.4928C77.4384 24.4928 75.4207 28.528 75.1966 32.1149L73.9619 45.4958L81.922 46.6866L80.9115 24.6471Z" fill="#C3C3C3"/>
<path d="M81.525 10.129L79.1932 7.12907C79.0557 6.49745 79.1738 5.83708 79.5217 5.29228C79.8696 4.74748 80.419 4.36256 81.0499 4.22162L89.8584 2.27876C90.4901 2.14127 91.1505 2.25938 91.6953 2.60728C92.2401 2.95519 92.6251 3.50461 92.7661 4.13547L92.7709 4.15715L92.1401 7.77971L92.0293 7.7599C86.5628 6.78524 85.0055 7.12808 81.6141 10.0523L81.525 10.129Z" fill="#2F2E41"/>
<path d="M104.985 58.0616L104.565 40.4096L104.116 27.8555L98.7358 28.528L101.625 58.5336C101.318 58.9195 101.133 59.3887 101.095 59.8806C101.057 60.3725 101.168 60.8645 101.413 61.2929C101.657 61.7213 102.025 62.0665 102.468 62.2839C102.911 62.5012 103.409 62.5807 103.897 62.5121C104.386 62.4434 104.842 62.2298 105.208 61.8988C105.574 61.5679 105.832 61.1347 105.95 60.6555C106.067 60.1762 106.037 59.6728 105.865 59.2104C105.693 58.748 105.387 58.3478 104.985 58.0616Z" fill="#FFB6B6"/>
<path d="M97.7251 19.0426L101.65 18.6642C101.65 18.6642 102.322 18.6642 102.995 20.906C103.668 23.1478 107.365 46.841 107.365 46.841L99.1839 47.5834L97.7251 19.0426Z" fill="#C3C3C3"/>
<path d="M73.3405 47.0519H72.816V32.6818C72.816 31.5896 72.6008 30.5081 72.1829 29.499C71.7649 28.4899 71.1523 27.5731 70.38 26.8008C69.6077 26.0284 68.6908 25.4158 67.6817 24.9978C66.6727 24.5799 65.5911 24.3647 64.4989 24.3647H34.0539C32.9617 24.3647 31.8801 24.5799 30.8711 24.9978C29.862 25.4158 28.9451 26.0284 28.1728 26.8007C27.4005 27.573 26.7879 28.4899 26.3699 29.499C25.952 30.508 25.7368 31.5896 25.7368 32.6818V111.517C25.7368 113.723 26.6131 115.839 28.1728 117.398C29.7326 118.958 31.848 119.834 34.0538 119.834H64.4989C66.7047 119.834 68.8202 118.958 70.3799 117.398C71.9397 115.839 72.8159 113.723 72.8159 111.517V57.2808H73.3405V47.0519Z" fill="#3F3D56"/>
<path d="M64.8345 26.5286H60.8604C61.0432 26.9766 61.1129 27.4628 61.0635 27.9441C61.0142 28.4255 60.8472 28.8874 60.5772 29.289C60.3073 29.6906 59.9428 30.0197 59.5157 30.2473C59.0887 30.4748 58.6122 30.5939 58.1283 30.5939H40.6867C40.2028 30.5939 39.7263 30.4748 39.2993 30.2473C38.8722 30.0197 38.5077 29.6906 38.2378 29.289C37.9679 28.8874 37.8009 28.4255 37.7515 27.9441C37.7021 27.4628 37.7719 26.9766 37.9546 26.5286H34.2428C32.5955 26.5286 31.0157 27.1829 29.8509 28.3477C28.6861 29.5125 28.0317 31.0924 28.0317 32.7396V111.46C28.0317 112.275 28.1924 113.083 28.5045 113.836C28.8167 114.59 29.2742 115.275 29.8509 115.851C30.4277 116.428 31.1124 116.886 31.8659 117.198C32.6195 117.51 33.4272 117.671 34.2428 117.671H64.8345C65.6501 117.671 66.4578 117.51 67.2114 117.198C67.9649 116.886 68.6496 116.428 69.2264 115.851C69.8031 115.275 70.2606 114.59 70.5728 113.836C70.8849 113.083 71.0456 112.275 71.0456 111.46V32.7396C71.0456 31.924 70.8849 31.1163 70.5728 30.3628C70.2606 29.6092 69.8031 28.9245 69.2264 28.3477C68.6496 27.771 67.9649 27.3135 67.2114 27.0014C66.4578 26.6892 65.6501 26.5286 64.8345 26.5286Z" fill="#D2D2D2"/>
<path d="M44.6281 55.1371L45.474 58.0674L56.2839 57.8767L56.1891 52.5077C56.1142 48.258 53.1108 44.5928 48.8612 44.6678C44.6116 44.7427 41.9095 48.3354 41.9844 52.5851L42.6018 58.118L44.3643 58.0869L44.6281 55.1371Z" fill="#2F2E41"/>
<path d="M58.9979 59.8996L58.888 61.9396C56.5603 64.3609 53.385 65.7861 50.0289 65.9161C46.6727 66.0461 43.3967 64.8707 40.8887 62.6368C40.7766 62.5382 40.6667 62.4351 40.5591 62.3297C41.2316 61.6617 43.0879 60.0117 45.1481 59.8592L54.4381 59.2741C54.4381 59.2741 57.9577 58.8616 58.9979 59.8996Z" fill="#DBDBDB"/>
<path d="M49.5265 66.1451C46.2867 66.1488 43.159 64.9596 40.7401 62.8043C40.6258 62.7039 40.5129 62.598 40.4025 62.4897C39.1003 61.2599 38.0643 59.7759 37.3586 58.1296C36.653 56.4833 36.2926 54.7097 36.2999 52.9185C36.2999 49.4106 37.6934 46.0464 40.1739 43.5659C42.6544 41.0854 46.0186 39.6919 49.5265 39.6919C53.0345 39.6919 56.3987 41.0854 58.8792 43.5659C61.3597 46.0464 62.7532 49.4106 62.7532 52.9185C62.7642 55.8658 61.7798 58.7305 59.9595 61.0486C58.7232 62.6362 57.1407 63.9206 55.3326 64.8039C53.5246 65.6871 51.5388 66.1459 49.5265 66.1451ZM49.5265 40.1403C46.1387 40.1441 42.8907 41.4916 40.4952 43.8872C38.0996 46.2827 36.7521 49.5307 36.7483 52.9185C36.7413 54.6494 37.0897 56.3633 37.7718 57.9541C38.4539 59.545 39.4552 60.9789 40.7138 62.1672C40.821 62.272 40.9279 62.3724 41.037 62.4684C42.3442 63.6274 43.8749 64.5065 45.5348 65.0513C47.1947 65.5962 48.9486 65.7953 50.6884 65.6364C52.4281 65.4775 54.1169 64.964 55.6507 64.1274C57.1844 63.2909 58.5305 62.1491 59.6061 60.7725C61.3646 58.5332 62.3156 55.7657 62.3048 52.9185C62.301 49.5307 60.9535 46.2827 58.5579 43.8872C56.1623 41.4916 52.9144 40.1441 49.5265 40.1403Z" fill="#3F3D56"/>
<path d="M61.4169 84.4826H38.1159C37.8836 84.4826 37.6535 84.4368 37.4389 84.3479C37.2242 84.259 37.0292 84.1287 36.8649 83.9644C36.7006 83.8001 36.5703 83.6051 36.4814 83.3904C36.3924 83.1757 36.3467 82.9457 36.3467 82.7133C36.3467 82.481 36.3924 82.2509 36.4814 82.0363C36.5703 81.8216 36.7006 81.6266 36.8649 81.4623C37.0292 81.298 37.2242 81.1677 37.4389 81.0788C37.6535 80.9898 37.8836 80.9441 38.1159 80.9441H61.4169C61.6492 80.9441 61.8793 80.9898 62.0939 81.0788C62.3086 81.1677 62.5036 81.298 62.6679 81.4623C62.8322 81.6266 62.9625 81.8216 63.0514 82.0363C63.1404 82.2509 63.1861 82.481 63.1861 82.7133C63.1861 82.9457 63.1404 83.1757 63.0514 83.3904C62.9625 83.6051 62.8322 83.8001 62.6679 83.9644C62.5036 84.1287 62.3086 84.259 62.0939 84.3479C61.8793 84.4368 61.6492 84.4826 61.4169 84.4826Z" fill="#6C63FF"/>
<path d="M61.4169 90.0871H38.1159C37.6467 90.0871 37.1967 89.9007 36.8649 89.5689C36.5331 89.2371 36.3467 88.7871 36.3467 88.3178C36.3467 87.8486 36.5331 87.3986 36.8649 87.0668C37.1967 86.735 37.6467 86.5486 38.1159 86.5486H61.4169C61.8861 86.5486 62.3361 86.735 62.6679 87.0668C62.9997 87.3986 63.1861 87.8486 63.1861 88.3178C63.1861 88.7871 62.9997 89.2371 62.6679 89.5689C62.3361 89.9007 61.8861 90.0871 61.4169 90.0871Z" fill="#6C63FF"/>
<path d="M135.254 120H0.746153C0.686697 120 0.629679 119.976 0.587637 119.934C0.545595 119.892 0.521973 119.835 0.521973 119.776C0.521973 119.716 0.545595 119.659 0.587637 119.617C0.629679 119.575 0.686697 119.552 0.746153 119.552H135.254C135.314 119.552 135.371 119.575 135.413 119.617C135.455 119.659 135.478 119.716 135.478 119.776C135.478 119.835 135.455 119.892 135.413 119.934C135.371 119.976 135.314 120 135.254 120Z" fill="#AB9FD1"/>
<path d="M49.3442 57.1862C52.0229 57.1862 54.1943 55.0147 54.1943 52.3361C54.1943 49.6574 52.0229 47.486 49.3442 47.486C46.6656 47.486 44.4941 49.6574 44.4941 52.3361C44.4941 55.0147 46.6656 57.1862 49.3442 57.1862Z" fill="#FFB6B6"/>
<path d="M54.6532 48.9304C54.6468 48.559 54.5305 48.1979 54.3191 47.8925C54.2968 47.8611 54.2744 47.8319 54.2519 47.8028C54.0722 47.5735 53.8419 47.3888 53.579 47.2631C53.3161 47.1375 53.0278 47.0744 52.7364 47.0787L49.2505 47.1415L45.7667 47.202C45.2676 47.212 44.7928 47.4193 44.4462 47.7785C44.0996 48.1377 43.9094 48.6196 43.9172 49.1187L44.7467 50.7889L45.2242 51.7484L45.3027 51.7035C48.3178 50.0087 49.5508 49.9863 53.5413 51.5623L53.622 51.5937L53.9381 50.7844L54.6554 48.9484L54.6532 48.9304Z" fill="#2F2E41"/>
<path d="M59.7826 60.9107C58.7879 62.1825 57.5674 63.2601 56.1822 64.0896L55.9648 60.1933L58.998 59.8997C58.998 59.8997 59.3612 59.8997 59.7826 60.9107Z" fill="#DBDBDB"/>
<path d="M55.7443 78.8101H43.7883C43.3191 78.8101 42.869 78.6237 42.5372 78.2919C42.2054 77.9601 42.019 77.5101 42.019 77.0409C42.019 76.5716 42.2054 76.1216 42.5372 75.7898C42.869 75.458 43.3191 75.2716 43.7883 75.2716H55.7443C56.2135 75.2716 56.6635 75.458 56.9953 75.7898C57.3271 76.1216 57.5135 76.5716 57.5135 77.0409C57.5135 77.5101 57.3271 77.9601 56.9953 78.2919C56.6635 78.6237 56.2135 78.8101 55.7443 78.8101Z" fill="#6C63FF"/>
</g>
<defs>
<clipPath id="clip0_23_2794">
<rect width="134.956" height="120" fill="white" transform="translate(0.521973)"/>
</clipPath>
</defs>
</svg>
