<svg width="208" height="124" viewBox="0 0 208 124" fill="none" xmlns="http://www.w3.org/2000/svg">
<g id="undraw_login_re_4vu2 1" clip-path="url(#clip0_120_1669)">
<path id="Vector" d="M158.984 122.598C156.334 120.354 154.724 116.81 155.146 113.359C155.568 109.908 158.183 106.736 161.575 106.004C164.966 105.271 168.833 107.299 169.863 110.619C170.43 104.219 171.083 97.5504 174.479 92.1001C177.554 87.165 182.88 83.6337 188.652 83.0019C194.425 82.3702 200.502 84.7562 204.102 89.3211C207.702 93.886 208.583 100.522 206.062 105.763C204.205 109.624 200.783 112.497 197.197 114.835C185.612 122.324 171.717 125.37 158.069 123.412L158.984 122.598Z" fill="#2E2E2E"/>
<path id="Vector_2" d="M198.394 84.8885C193.631 88.7754 189.262 93.1227 185.349 97.8674C179.226 105.267 174.271 113.564 170.656 122.469C170.392 123.118 171.445 123.401 171.706 122.759C177.62 108.287 187.06 95.5319 199.164 85.6598C199.707 85.2164 198.933 84.4487 198.394 84.8885Z" fill="#6F6F6F"/>
<path id="Vector_3" d="M67.1367 121.988C70.7766 118.906 72.9876 114.038 72.4078 109.299C71.828 104.559 68.2367 100.202 63.5783 99.1959C58.9198 98.1895 53.6096 100.975 52.1946 105.535C51.4159 96.7444 50.5186 87.5855 45.8542 80.0995C41.6306 73.3212 34.3153 68.471 26.3872 67.6033C18.4591 66.7356 10.1118 70.0127 5.16727 76.2826C0.222787 82.5525 -0.987848 91.6675 2.47514 98.8658C5.0262 104.169 9.72615 108.115 14.6505 111.326C30.361 121.568 49.8498 125.84 68.3938 123.106" fill="#2E2E2E"/>
<path id="Vector_4" d="M13.0071 70.1944C19.5488 75.5332 25.5501 81.5041 30.9243 88.021C36.2992 94.5311 41.0313 101.548 45.054 108.974C47.3026 113.139 49.3225 117.425 51.1047 121.811C51.4681 122.703 50.0221 123.091 49.6628 122.209C46.506 114.476 42.6004 107.072 38.002 100.103C33.426 93.1592 28.1885 86.6763 22.3631 80.7456C19.0683 77.3929 15.5919 74.2242 11.9498 71.2539C11.2032 70.6448 12.2668 69.5903 13.0071 70.1944Z" fill="#6F6F6F"/>
<path id="Vector_5" d="M149.088 123.729H62.2432V34.4485C62.2432 15.4535 77.6664 0 96.6241 0H114.707C133.665 0 149.088 15.4535 149.088 34.4485V123.729Z" fill="#2E2E2E"/>
<path id="Vector_6" d="M131.005 123.729H62.243V34.4485C62.2241 27.1701 64.5243 20.0756 68.8089 14.198C68.9669 13.9823 69.1244 13.7693 69.2869 13.5588C71.3593 10.8353 73.8255 8.43683 76.6042 6.44245C76.7612 6.32802 76.9188 6.21558 77.0787 6.10313C79.4038 4.49095 81.919 3.17302 84.5669 2.17934C84.7242 2.11962 84.8842 2.05979 85.0443 2.0024C87.4392 1.14609 89.9217 0.559526 92.446 0.25353C92.6025 0.23211 92.7632 0.215349 92.9238 0.198587C95.3838 -0.0649547 97.8648 -0.0649547 100.325 0.198587C100.485 0.215349 100.646 0.232108 100.804 0.25376C103.328 0.559775 105.81 1.14627 108.204 2.00241C108.364 2.0598 108.524 2.11963 108.682 2.17946C111.297 3.1606 113.783 4.45887 116.083 6.04528C116.243 6.15529 116.403 6.26774 116.56 6.38018C118.118 7.49415 119.581 8.73518 120.934 10.0906C122.02 11.1778 123.031 12.3367 123.962 13.5595C124.124 13.7694 124.281 13.9823 124.439 14.1976C128.724 20.0753 131.024 27.1699 131.005 34.4485V123.729Z" fill="#1A1A1A"/>
<path id="Vector_7" d="M125.414 83.7969C127.516 83.7969 129.221 82.0892 129.221 79.9825C129.221 77.8759 127.516 76.1682 125.414 76.1682C123.311 76.1682 121.607 77.8759 121.607 79.9825C121.607 82.0892 123.311 83.7969 125.414 83.7969Z" fill="#341E78"/>
<path id="Vector_8" d="M141.974 121.054H139.057L137.669 109.781L141.974 109.781L141.974 121.054Z" fill="#795B5B"/>
<path id="Vector_9" d="M136.973 120.219H142.599V123.768H133.431C133.431 123.302 133.523 122.841 133.701 122.41C133.879 121.98 134.139 121.588 134.468 121.259C134.797 120.929 135.188 120.668 135.617 120.489C136.047 120.311 136.508 120.219 136.973 120.219Z" fill="#1D1C1C"/>
<path id="Vector_10" d="M156.487 121.054H153.57L152.182 109.781L156.488 109.781L156.487 121.054Z" fill="#795B5B"/>
<path id="Vector_11" d="M151.487 120.219H157.112V123.768H147.945C147.945 123.302 148.036 122.841 148.214 122.41C148.392 121.98 148.653 121.588 148.982 121.259C149.311 120.929 149.701 120.668 150.131 120.489C150.561 120.311 151.021 120.219 151.487 120.219Z" fill="#1D1C1C"/>
<path id="Vector_12" d="M127.341 80.7382C127.131 80.4284 126.991 80.0763 126.932 79.7066C126.873 79.3369 126.895 78.9587 126.997 78.5987C127.099 78.2386 127.279 77.9053 127.524 77.6224C127.769 77.3395 128.073 77.1138 128.414 76.9612L138.33 49.5772L143.209 52.2452L131.887 78.4144C132.105 79.0057 132.099 79.6566 131.87 80.2437C131.64 80.8307 131.204 81.3132 130.644 81.5997C130.084 81.8861 129.438 81.9566 128.829 81.7978C128.22 81.6391 127.69 81.262 127.341 80.7382Z" fill="#795B5B"/>
<path id="Vector_13" d="M154.997 85.8837C154.673 85.6975 154.394 85.4423 154.179 85.1362C153.963 84.83 153.818 84.4803 153.752 84.1117C153.687 83.7432 153.703 83.3646 153.799 83.0028C153.895 82.641 154.069 82.3048 154.309 82.0177L151.237 53.0501L156.79 53.3043L158.066 81.7978C158.521 82.2335 158.8 82.8213 158.851 83.4495C158.902 84.0778 158.722 84.703 158.343 85.2067C157.965 85.7103 157.415 86.0574 156.799 86.1822C156.182 86.307 155.541 86.2008 154.997 85.8837Z" fill="#795B5B"/>
<path id="Vector_14" d="M146.139 44.505C149.366 44.505 151.983 41.8835 151.983 38.6497C151.983 35.4159 149.366 32.7944 146.139 32.7944C142.912 32.7944 140.295 35.4159 140.295 38.6497C140.295 41.8835 142.912 44.505 146.139 44.505Z" fill="#795B5B"/>
<path id="Vector_15" d="M154.96 79.2956H137.342L137.363 79.1583C137.395 78.9529 140.503 58.5514 138.21 51.877C137.98 51.2211 138.001 50.5031 138.267 49.8612C138.534 49.2194 139.028 48.699 139.655 48.4003C142.931 46.8542 149.221 44.9504 154.53 49.5706C155.311 50.2617 155.921 51.1254 156.312 52.0934C156.703 53.0615 156.863 54.1073 156.781 55.1482L154.96 79.2956Z" fill="#341E78"/>
<path id="Vector_16" d="M140.726 61.5664L132.794 59.9541L136.512 51.1262C136.734 50.2712 137.286 49.5395 138.046 49.0917C138.807 48.6438 139.713 48.5163 140.567 48.7372C141.421 48.958 142.152 49.5092 142.601 50.2698C143.05 51.0304 143.18 51.9384 142.961 52.7944L140.726 61.5664Z" fill="#341E78"/>
<path id="Vector_17" d="M150.884 64.5601L150.408 53.6078C150.046 51.5489 151.222 49.6026 153.031 49.2845C154.841 48.9675 156.608 50.3955 156.971 52.4695L158.763 62.7033L150.884 64.5601Z" fill="#341E78"/>
<path id="Vector_18" d="M154.374 77.9844C157.209 88.8021 157.518 102.556 156.753 117.558L152.946 117.082L146.046 88.4739L142.239 117.558L137.957 117.32C136.677 101.579 135.431 88.065 137.481 79.1764L154.374 77.9844Z" fill="#1D1C1C"/>
<path id="Vector_19" d="M149.989 43.1748C148.899 44.3384 146.875 43.7138 146.733 42.1242C146.721 42.0008 146.722 41.8766 146.735 41.7533C146.808 41.0492 147.214 40.4099 147.117 39.6665C147.095 39.4814 147.026 39.3051 146.917 39.1542C146.048 37.9886 144.009 39.6755 143.189 38.6203C142.686 37.9733 143.277 36.9546 142.892 36.2314C142.382 35.277 140.874 35.7478 139.928 35.2251C138.876 34.6436 138.939 33.0259 139.632 32.0419C140.477 30.8419 141.958 30.2016 143.42 30.1093C144.883 30.017 146.336 30.4132 147.701 30.9464C149.253 31.5523 150.792 32.3895 151.746 33.7565C152.908 35.4189 153.019 37.6538 152.439 39.5977C152.085 40.7802 150.88 42.2247 149.989 43.1748Z" fill="#1D1C1C"/>
<path id="Vector_20" d="M200.358 123.882H24.6946C24.6196 123.882 24.5478 123.852 24.4948 123.799C24.4418 123.745 24.4121 123.673 24.4121 123.598C24.4121 123.523 24.4418 123.451 24.4948 123.398C24.5478 123.344 24.6196 123.314 24.6946 123.314H200.358C200.433 123.314 200.505 123.344 200.557 123.398C200.61 123.451 200.64 123.523 200.64 123.598C200.64 123.673 200.61 123.745 200.557 123.799C200.505 123.852 200.433 123.882 200.358 123.882Z" fill="#1B1B22"/>
<path id="Vector_21" d="M112.09 97.8624H81.1586C80.7513 97.8646 80.3597 97.7048 80.0697 97.4181C79.7798 97.1314 79.6152 96.7411 79.6121 96.333V27.1572C79.6152 26.749 79.7798 26.3588 80.0697 26.0721C80.3597 25.7854 80.7513 25.6256 81.1586 25.6278H112.09C112.497 25.6256 112.889 25.7854 113.179 26.0721C113.468 26.3588 113.633 26.749 113.636 27.1572V96.333C113.633 96.7411 113.468 97.1314 113.179 97.4181C112.889 97.7048 112.497 97.8646 112.09 97.8624Z" fill="#6F6F6F"/>
<path id="Vector_22" d="M113.636 48.0109H79.6121V48.4877H113.636V48.0109Z" fill="#1A1A1A"/>
<path id="Vector_23" d="M113.755 75.2146H79.731V75.6914H113.755V75.2146Z" fill="#1A1A1A"/>
<path id="Vector_24" d="M90.7947 25.6278H90.3188V98.1008H90.7947V25.6278Z" fill="#1A1A1A"/>
<path id="Vector_25" d="M102.691 25.6278H102.216V98.1008H102.691V25.6278Z" fill="#1A1A1A"/>
</g>
<defs>
<clipPath id="clip0_120_1669">
<rect width="207" height="124" fill="white" transform="translate(0.5)"/>
</clipPath>
</defs>
</svg>
