<svg width="222" height="124" viewBox="0 0 222 124" fill="none" xmlns="http://www.w3.org/2000/svg">
<g id="undraw_throw_away_re_x60k 1" clip-path="url(#clip0_4_2205)">
<path id="Path 1" d="M46.8503 123.528H13.0028C13.0028 123.528 12.3167 113.465 16.376 113.351C20.4353 113.236 19.9779 117.81 25.0666 111.521C30.1552 105.232 36.3299 105.575 37.1303 109.291C37.9308 113.008 35.5867 115.981 39.8747 115.066C44.1627 114.151 50.3378 116.553 46.8503 123.528Z" fill="#E6E6E6"/>
<path id="Path 2" d="M29.3551 123.53L29.2407 123.526C29.5072 116.901 30.8946 112.644 32.0118 110.239C33.2247 107.629 34.3934 106.572 34.4052 106.562L34.4813 106.647C34.4698 106.658 33.3147 107.704 32.1115 110.297C31.0005 112.691 29.6206 116.93 29.3551 123.53Z" fill="white"/>
<path id="Path 3" d="M41.6054 123.544L41.4956 123.512C42.3468 120.704 43.8813 118.151 45.9615 116.082L46.0383 116.167C43.9735 118.221 42.4504 120.756 41.6054 123.544Z" fill="white"/>
<path id="Path 4" d="M18.334 123.536L18.2206 123.52C18.5897 121.036 18.1992 118.499 17.1005 116.241C16.6501 115.294 16.0538 114.423 15.3335 113.661L15.4127 113.578C16.1428 114.35 16.7472 115.231 17.204 116.19C18.3127 118.469 18.7066 121.029 18.334 123.536Z" fill="white"/>
<path id="Path 5" d="M51.4435 123.681H9.35201L9.34238 123.538C9.3183 123.184 8.78122 114.817 11.4922 111.832C11.7611 111.516 12.0931 111.261 12.4668 111.081C12.8405 110.902 13.2476 110.803 13.6619 110.79C15.4289 110.74 16.5394 111.402 17.4352 111.933C19.1235 112.935 20.2386 113.596 24.2938 108.585C28.6865 103.155 33.4264 101.987 36.151 102.636C37.9115 103.056 39.1248 104.242 39.4799 105.891C39.8169 107.452 39.7091 108.919 39.6229 110.098C39.5307 111.359 39.458 112.355 39.9761 112.807C40.4094 113.184 41.2715 113.218 42.6918 112.915C45.5806 112.298 49.6125 112.826 51.6359 115.44C52.7245 116.847 53.5822 119.403 51.4859 123.596L51.4435 123.681ZM9.6392 123.375H51.2541C52.8162 120.206 52.8651 117.528 51.3939 115.627C49.5376 113.229 45.6432 112.598 42.7556 113.214C41.2122 113.543 40.2929 113.489 39.775 113.038C39.1417 112.486 39.2194 111.422 39.3177 110.077C39.4024 108.917 39.5076 107.475 39.1807 105.956C38.8513 104.427 37.7211 103.326 36.0798 102.935C33.442 102.306 28.8336 103.459 24.5314 108.778C20.3103 113.995 19.0385 113.241 17.279 112.196C16.3721 111.658 15.3427 111.048 13.6703 111.096C13.2973 111.108 12.931 111.198 12.5948 111.36C12.2586 111.522 11.9601 111.753 11.7184 112.037C9.28268 114.72 9.57974 122.244 9.63945 123.375H9.6392Z" fill="#2F2E41"/>
<path id="Path 8" d="M188.976 123.851H147.518L147.51 123.618L145.53 67.0021H190.964L188.976 123.851ZM147.983 123.369H188.511L190.465 67.4835H146.029L147.983 123.369Z" fill="#3F3D56"/>
<g id="Group 1">
<path id="Rectangle 17" d="M157.407 77.4922H154.254V116.515H157.407V77.4922Z" fill="#3F3D56"/>
<path id="Rectangle 18" d="M169.823 77.4922H166.67V116.515H169.823V77.4922Z" fill="#3F3D56"/>
<path id="Rectangle 19" d="M182.24 77.4922H179.086V116.515H182.24V77.4922Z" fill="#3F3D56"/>
</g>
<path id="Vector" d="M217.308 83.6275L217.105 83.4989L165.608 50.9554L170.075 43.887L170.279 44.0156L221.775 76.5589L217.308 83.6275ZM166.272 50.8057L217.158 82.9631L221.111 76.7089L170.225 44.5511L166.272 50.8057Z" fill="#3F3D56"/>
<path id="Path 10" d="M204.875 48.3326C203.378 47.3852 201.641 46.8872 199.87 46.8976C198.098 46.908 196.367 47.4264 194.881 48.3912C193.396 49.3561 192.218 50.7269 191.488 52.3409C190.758 53.955 190.507 55.7446 190.763 57.4974L193.219 59.0492C192.602 57.6163 192.459 56.0235 192.813 54.5041C193.167 52.9846 193.997 51.6182 195.184 50.605C196.37 49.5918 197.85 48.985 199.406 48.8735C200.962 48.762 202.513 49.1515 203.831 49.9852C205.15 50.8189 206.167 52.0528 206.734 53.5063C207.301 54.9599 207.387 56.5566 206.981 58.0628C206.574 59.5691 205.696 60.9056 204.475 61.8767C203.254 62.8479 201.754 63.4026 200.195 63.4597L202.651 65.0115C204.344 64.4916 205.853 63.4968 206.998 62.1451C208.143 60.7935 208.876 59.1417 209.111 57.3858C209.345 55.6299 209.071 53.8436 208.321 52.2389C207.57 50.6342 206.375 49.2785 204.877 48.3326H204.875Z" fill="#3F3D56"/>
<path id="Rectangle 21" d="M219.054 123.519H0.224609V124H219.054V123.519Z" fill="#3F3D56"/>
<g id="Group 6">
<path id="Path 111" d="M95.8057 120.233H92.2996L90.6309 106.71H95.8067L95.8057 120.233Z" fill="#FEB8B8"/>
<path id="Path 112" d="M85.5381 123.488H96.5568V119.231H89.7363C88.6229 119.231 87.555 119.674 86.7677 120.461C85.9804 121.248 85.5381 122.316 85.5381 123.429V123.488Z" fill="#2F2E41"/>
<path id="Path 113" d="M94.5737 99.2783L96.9922 101.817L107.934 93.6975L104.365 89.9509L94.5737 99.2783Z" fill="#FEB8B8"/>
<path id="Path 114" d="M99.4837 102.98L94.7775 98.0419L91.6953 100.979L99.2982 108.957L99.3409 108.916C99.7401 108.536 100.06 108.08 100.284 107.576C100.507 107.072 100.629 106.529 100.642 105.978C100.655 105.426 100.56 104.878 100.361 104.364C100.162 103.849 99.8641 103.379 99.4837 102.98Z" fill="#2F2E41"/>
<path id="Path 115" d="M70.1702 62.2294C69.9483 61.8725 69.8073 61.4712 69.7573 61.0538C69.7072 60.6365 69.7492 60.2133 69.8804 59.8139C70.0116 59.4146 70.2287 59.0489 70.5164 58.7425C70.8042 58.4361 71.1556 58.1965 71.546 58.0406L85.311 22.9589L90.6766 26.1715L75.3855 59.8264C75.604 60.4997 75.5679 61.2298 75.284 61.8783C75.0002 62.5268 74.4883 63.0486 73.8454 63.3448C73.2024 63.641 72.4732 63.6911 71.7958 63.4855C71.1184 63.28 70.54 62.833 70.1702 62.2294Z" fill="#FEB8B8"/>
<path id="Path 116" d="M122.418 64.744C121.998 64.714 121.591 64.5924 121.223 64.3878C120.856 64.1831 120.538 63.9004 120.292 63.5595C120.046 63.2187 119.877 62.828 119.798 62.415C119.719 62.0019 119.732 61.5766 119.835 61.1691L99.5283 29.4234L105.28 26.9679L123.536 59.1117C124.21 59.3296 124.781 59.7876 125.14 60.3985C125.499 61.0094 125.621 61.7309 125.483 62.4259C125.345 63.1208 124.956 63.7409 124.391 64.1684C123.826 64.596 123.124 64.8011 122.418 64.7449V64.744Z" fill="#FEB8B8"/>
<path id="Path 117" d="M85.4468 58.7167L89.0412 112.139L97.6312 111.381L99.3996 71.9676L104.2 88.8947L114.558 89.6525L110.458 56.1902L85.4468 58.7167Z" fill="#2F2E41"/>
<path id="Path 118" d="M105.715 86.3684L104.199 88.8949L93.5889 96.2215L101.168 100.264C101.168 100.264 115.822 92.1793 114.558 89.6528L105.715 86.3684Z" fill="#2F2E41"/>
<path id="Path 119" d="M77.9243 37.1024L80.9145 28.6767C81.5798 26.8019 82.6102 25.0777 83.9463 23.6038C85.2823 22.1299 86.8973 20.9356 88.698 20.0901C92.7452 18.5991 97.147 18.3581 101.333 19.3984L102.421 19.6686C105.323 20.3718 108.041 21.6849 110.396 23.5203C112.239 24.9729 113.896 26.8122 114.044 28.7905C114.045 28.7947 114.046 28.7989 114.048 28.8028C114.558 31.0397 114.81 42.6613 114.81 42.6613H110.309L111.021 58.3253L110.963 58.2119C110.963 58.2119 84.9984 63.1255 84.9984 60.599V44.4292L84.4661 38.5745L77.9243 37.1024Z" fill="#CCCCCC"/>
<path id="Ellipse 12" d="M102.16 17.2082C106.134 17.2082 109.356 13.9868 109.356 10.0129C109.356 6.03898 106.134 2.8175 102.16 2.8175C98.1863 2.8175 94.9648 6.03898 94.9648 10.0129C94.9648 13.9868 98.1863 17.2082 102.16 17.2082Z" fill="#FEB8B8"/>
<path id="Path 120" d="M103.238 6.78601L108.825 7.00989C109.528 7.00773 110.296 6.98293 110.831 6.52842C111.637 5.84256 111.502 4.54837 111.071 3.58157C109.867 0.889657 107.182 -0.0747307 104.234 0.00447154C101.285 0.0836738 98.1959 1.08297 96.6083 3.56737C95.0206 6.05176 94.5916 9.18904 95.1896 12.0759C95.8809 10.608 96.9452 9.34705 98.2762 8.41898C99.6072 7.49091 101.158 6.92818 102.775 6.78697L103.238 6.78601Z" fill="#2F2E41"/>
</g>
<g id="Group 4">
<path id="Path 81" d="M136.415 77.1667L116.192 62.9939C116.004 62.8616 115.877 62.6604 115.837 62.4341C115.797 62.2078 115.849 61.975 115.98 61.7866L131.852 39.1399C131.984 38.952 132.186 38.8242 132.412 38.7844C132.638 38.7446 132.871 38.7961 133.059 38.9276L153.282 53.1004C153.469 53.2326 153.597 53.4339 153.637 53.6602C153.677 53.8864 153.625 54.1192 153.494 54.3076L137.622 76.9538C137.49 77.1419 137.289 77.2699 137.062 77.3098C136.836 77.3497 136.603 77.2983 136.415 77.1667Z" fill="#6C63FF"/>
<path id="Path 82" d="M140.962 61.7882L129.096 53.4718C128.959 53.3756 128.842 53.2533 128.752 53.112C128.662 52.9706 128.601 52.8129 128.572 52.6478C128.543 52.4828 128.547 52.3137 128.583 52.1501C128.619 51.9865 128.688 51.8317 128.784 51.6944C128.88 51.5572 129.002 51.4403 129.144 51.3503C129.285 51.2603 129.443 51.1991 129.608 51.17C129.773 51.141 129.942 51.1448 130.106 51.1811C130.269 51.2175 130.424 51.2857 130.561 51.3818L142.427 59.6982C142.704 59.8925 142.893 60.1888 142.952 60.5222C143.01 60.8555 142.934 61.1984 142.74 61.4756C142.546 61.7527 142.249 61.9413 141.916 62C141.583 62.0586 141.24 61.9824 140.962 61.7882Z" fill="white"/>
<path id="Path 83" d="M138.239 65.6739L126.373 57.3575C126.236 57.2614 126.119 57.1392 126.029 56.9978C125.938 56.8564 125.877 56.6986 125.848 56.5335C125.819 56.3684 125.823 56.1992 125.859 56.0355C125.895 55.8718 125.963 55.7169 126.06 55.5796C126.156 55.4423 126.278 55.3253 126.42 55.2353C126.561 55.1453 126.719 55.0841 126.884 55.0551C127.049 55.0261 127.219 55.03 127.382 55.0664C127.546 55.1029 127.701 55.1713 127.838 55.2676L139.704 63.584C139.981 63.7784 140.169 64.0747 140.228 64.4078C140.286 64.741 140.21 65.0837 140.016 65.3607C139.822 65.6377 139.525 65.8263 139.192 65.885C138.859 65.9437 138.516 65.8678 138.239 65.6739Z" fill="white"/>
<path id="Path 84" d="M135.486 69.6014L123.62 61.285C123.483 61.1888 123.366 61.0666 123.276 60.9252C123.186 60.7838 123.125 60.6261 123.096 60.4611C123.067 60.296 123.071 60.1269 123.107 59.9633C123.143 59.7997 123.212 59.6449 123.308 59.5077C123.404 59.3705 123.526 59.2535 123.668 59.1635C123.809 59.0736 123.967 59.0123 124.132 58.9833C124.297 58.9543 124.466 58.958 124.629 58.9944C124.793 59.0307 124.948 59.0989 125.085 59.1951L136.951 67.5115C137.228 67.7057 137.417 68.0021 137.476 68.3354C137.534 68.6687 137.458 69.0117 137.264 69.2888C137.069 69.5659 136.773 69.7546 136.44 69.8132C136.106 69.8718 135.764 69.7956 135.486 69.6014Z" fill="white"/>
<path id="Path 85" d="M140.929 54.1015L136.333 50.8804C136.196 50.7843 136.079 50.662 135.989 50.5206C135.898 50.3792 135.837 50.2215 135.808 50.0564C135.779 49.8912 135.783 49.722 135.819 49.5583C135.855 49.3946 135.923 49.2397 136.02 49.1024C136.116 48.9651 136.238 48.8481 136.38 48.7581C136.521 48.6681 136.679 48.6069 136.844 48.5779C137.009 48.5489 137.179 48.5528 137.342 48.5893C137.506 48.6257 137.661 48.6941 137.798 48.7904L142.394 52.0116C142.671 52.2059 142.86 52.5022 142.918 52.8355C142.977 53.1689 142.901 53.5118 142.707 53.7889C142.512 54.0661 142.216 54.2547 141.883 54.3133C141.549 54.372 141.206 54.2958 140.929 54.1015Z" fill="white"/>
</g>
</g>
<defs>
<clipPath id="clip0_4_2205">
<rect width="221.551" height="124" fill="white" transform="translate(0.224609)"/>
</clipPath>
</defs>
</svg>
