<svg width="16" height="17" viewBox="0 0 16 17" fill="none" xmlns="http://www.w3.org/2000/svg">
<g id="UserCircleGear">
<path id="Vector" d="M14.2654 4.44187L13.9741 4.27375C14.0083 4.09285 14.0083 3.90715 13.9741 3.72625L14.2654 3.55813C14.3803 3.49182 14.4641 3.3826 14.4984 3.25449C14.5328 3.12638 14.5148 2.98987 14.4485 2.875C14.3822 2.76013 14.273 2.6763 14.1449 2.64196C14.0168 2.60762 13.8803 2.62557 13.7654 2.69187L13.4735 2.86063C13.3338 2.74079 13.1732 2.64777 12.9998 2.58625V2.25C12.9998 2.11739 12.9471 1.99021 12.8533 1.89645C12.7596 1.80268 12.6324 1.75 12.4998 1.75C12.3672 1.75 12.24 1.80268 12.1462 1.89645C12.0525 1.99021 11.9998 2.11739 11.9998 2.25V2.58625C11.8263 2.64777 11.6657 2.74079 11.526 2.86063L11.2341 2.69187C11.1773 2.65904 11.1145 2.63774 11.0494 2.62917C10.9843 2.62061 10.9181 2.62495 10.8547 2.64196C10.7912 2.65896 10.7318 2.68829 10.6797 2.72828C10.6276 2.76827 10.5839 2.81812 10.551 2.875C10.5182 2.93188 10.4969 2.99467 10.4883 3.05978C10.4798 3.12489 10.4841 3.19105 10.5011 3.25449C10.5181 3.31792 10.5474 3.37739 10.5874 3.42948C10.6274 3.48158 10.6773 3.52529 10.7341 3.55813L11.0254 3.72625C10.9912 3.90715 10.9912 4.09285 11.0254 4.27375L10.7341 4.44187C10.6388 4.49688 10.5642 4.58184 10.5221 4.68355C10.4799 4.78526 10.4725 4.89804 10.501 5.0044C10.5295 5.11075 10.5923 5.20472 10.6796 5.27173C10.767 5.33874 10.874 5.37504 10.9841 5.375C11.0719 5.37527 11.1582 5.35219 11.2341 5.30813L11.526 5.13938C11.6657 5.25921 11.8263 5.35223 11.9998 5.41375V5.75C11.9998 5.88261 12.0525 6.00979 12.1462 6.10355C12.24 6.19732 12.3672 6.25 12.4998 6.25C12.6324 6.25 12.7596 6.19732 12.8533 6.10355C12.9471 6.00979 12.9998 5.88261 12.9998 5.75V5.41375C13.1732 5.35223 13.3338 5.25921 13.4735 5.13938L13.7654 5.30813C13.8413 5.35219 13.9276 5.37527 14.0154 5.375C14.1255 5.37504 14.2325 5.33874 14.3199 5.27173C14.4073 5.20472 14.4701 5.11075 14.4986 5.0044C14.5271 4.89804 14.5196 4.78526 14.4775 4.68355C14.4353 4.58184 14.3608 4.49688 14.2654 4.44187ZM11.9998 4C11.9998 3.90111 12.0291 3.80444 12.084 3.72221C12.139 3.63999 12.2171 3.5759 12.3084 3.53806C12.3998 3.50022 12.5003 3.49031 12.5973 3.50961C12.6943 3.5289 12.7834 3.57652 12.8533 3.64645C12.9233 3.71637 12.9709 3.80546 12.9902 3.90245C13.0095 3.99945 12.9996 4.09998 12.9617 4.19134C12.9239 4.2827 12.8598 4.36079 12.7776 4.41573C12.6953 4.47068 12.5987 4.5 12.4998 4.5C12.3672 4.5 12.24 4.44732 12.1462 4.35355C12.0525 4.25979 11.9998 4.13261 11.9998 4ZM13.8341 7.00688C13.7034 7.02876 13.5866 7.1017 13.5096 7.20965C13.4326 7.3176 13.4016 7.45172 13.4235 7.5825C13.4743 7.8857 13.4998 8.19258 13.4998 8.5C13.501 9.84637 13.0061 11.146 12.1098 12.1506C11.5521 11.3425 10.768 10.7174 9.85602 10.3538C10.3459 9.9679 10.7034 9.43899 10.8787 8.84056C11.0541 8.24213 11.0386 7.60393 10.8344 7.01472C10.6302 6.4255 10.2475 5.91455 9.73948 5.55293C9.23145 5.19131 8.62336 4.99699 7.99977 4.99699C7.37618 4.99699 6.76809 5.19131 6.26006 5.55293C5.75203 5.91455 5.36932 6.4255 5.16514 7.01472C4.96096 7.60393 4.94547 8.24213 5.12082 8.84056C5.29616 9.43899 5.65364 9.9679 6.14352 10.3538C5.23153 10.7174 4.44742 11.3425 3.88977 12.1506C3.18647 11.3581 2.72707 10.3793 2.5668 9.3319C2.40653 8.2845 2.55222 7.21311 2.98636 6.24654C3.42049 5.27997 4.12458 4.45938 5.01397 3.88344C5.90336 3.3075 6.94019 3.00072 7.99977 3C8.30719 2.99995 8.61408 3.02546 8.91727 3.07625C9.04747 3.09679 9.18051 3.0651 9.28745 2.98806C9.3944 2.91102 9.4666 2.79486 9.48835 2.66486C9.5101 2.53487 9.47963 2.40154 9.40359 2.29388C9.32754 2.18623 9.21206 2.11295 9.08227 2.09C7.72442 1.86157 6.32911 2.07058 5.09779 2.68686C3.86648 3.30313 2.86287 4.29478 2.23189 5.51862C1.6009 6.74247 1.37518 8.13517 1.58732 9.49566C1.79946 10.8562 2.43848 12.114 3.41211 13.0877C4.38575 14.0613 5.64362 14.7003 7.00411 14.9125C8.3646 15.1246 9.75731 14.8989 10.9811 14.2679C12.205 13.6369 13.1966 12.6333 13.8129 11.402C14.4292 10.1707 14.6382 8.77535 14.4098 7.4175C14.3879 7.28672 14.3149 7.16999 14.207 7.09298C14.099 7.01597 13.9649 6.985 13.8341 7.00688ZM5.99977 8C5.99977 7.60444 6.11707 7.21776 6.33683 6.88886C6.5566 6.55996 6.86895 6.30362 7.23441 6.15224C7.59986 6.00087 8.00199 5.96126 8.38995 6.03843C8.77792 6.1156 9.13428 6.30608 9.41399 6.58579C9.69369 6.86549 9.88417 7.22186 9.96134 7.60982C10.0385 7.99778 9.99891 8.39991 9.84753 8.76537C9.69616 9.13082 9.43981 9.44318 9.11091 9.66294C8.78201 9.8827 8.39534 10 7.99977 10C7.46934 10 6.96063 9.78929 6.58556 9.41421C6.21049 9.03914 5.99977 8.53043 5.99977 8ZM4.62977 12.8438C4.99148 12.2781 5.48978 11.8125 6.07872 11.49C6.66767 11.1676 7.32832 10.9985 7.99977 10.9985C8.67123 10.9985 9.33187 11.1676 9.92082 11.49C10.5098 11.8125 11.0081 12.2781 11.3698 12.8438C10.4062 13.5931 9.22041 14 7.99977 14C6.77913 14 5.59331 13.5931 4.62977 12.8438Z" fill="#C9C9C9"/>
</g>
</svg>
