<svg width="16" height="16" viewBox="0 0 16 16" fill="none" xmlns="http://www.w3.org/2000/svg">
<g id="X">
<path id="Vector" d="M12.8535 12.1463C12.9 12.1927 12.9368 12.2479 12.962 12.3086C12.9871 12.3693 13.0001 12.4343 13.0001 12.5C13.0001 12.5657 12.9871 12.6308 12.962 12.6915C12.9368 12.7522 12.9 12.8073 12.8535 12.8538C12.8071 12.9002 12.7519 12.9371 12.6912 12.9622C12.6305 12.9874 12.5655 13.0003 12.4998 13.0003C12.4341 13.0003 12.369 12.9874 12.3083 12.9622C12.2476 12.9371 12.1925 12.9002 12.146 12.8538L7.99979 8.70691L3.85354 12.8538C3.75972 12.9476 3.63247 13.0003 3.49979 13.0003C3.36711 13.0003 3.23986 12.9476 3.14604 12.8538C3.05222 12.76 2.99951 12.6327 2.99951 12.5C2.99951 12.3674 3.05222 12.2401 3.14604 12.1463L7.29291 8.00003L3.14604 3.85378C3.05222 3.75996 2.99951 3.63272 2.99951 3.50003C2.99951 3.36735 3.05222 3.2401 3.14604 3.14628C3.23986 3.05246 3.36711 2.99976 3.49979 2.99976C3.63247 2.99976 3.75972 3.05246 3.85354 3.14628L7.99979 7.29316L12.146 3.14628C12.2399 3.05246 12.3671 2.99976 12.4998 2.99976C12.6325 2.99976 12.7597 3.05246 12.8535 3.14628C12.9474 3.2401 13.0001 3.36735 13.0001 3.50003C13.0001 3.63272 12.9474 3.75996 12.8535 3.85378L8.70666 8.00003L12.8535 12.1463Z" fill="#D11F1F"/>
</g>
</svg>
